<?xml version="1.0" encoding="utf-8"?>
<!-- Generator: Adobe Illustrator 27.9.0, SVG Export Plug-In . SVG Version: 6.00 Build 0)  -->
<svg version="1.1" id="Layer_2_00000019663161041176400220000003302498755999825047_"
	 xmlns="http://www.w3.org/2000/svg" xmlns:xlink="http://www.w3.org/1999/xlink" x="0px" y="0px" viewBox="0 0 387.9 387.9"
	 style="enable-background:new 0 0 387.9 387.9;" xml:space="preserve">
<style type="text/css">
	.st0{fill:none;}
	.st1{fill:#000;}
	.st2{fill:#149EC2;}
</style>
<g id="Layer_1-2">
	<g>
		<rect y="0" class="st0" width="387.9" height="387.9"/>
		<g>
			<g>
				<g>
					<path class="st1" d="M44.3,289.3v38H31.5v-97.2h35.8c10.6,0,19,2.7,25,8.1s9,12.6,9,21.6c0,9.4-2.9,16.7-8.8,21.8
						c-5.9,5.1-14.3,7.6-25.3,7.6L44.3,289.3L44.3,289.3z M44.3,278.8h23c6.8,0,12.1-1.6,15.8-4.9s5.5-7.9,5.5-14
						c0-5.8-1.8-10.4-5.5-13.9c-3.7-3.5-8.7-5.3-15-5.4H44.3L44.3,278.8L44.3,278.8z"/>
					<path class="st1" d="M150.7,266.2c-1.9-0.3-3.9-0.5-6.1-0.5c-8.1,0-13.6,3.5-16.5,10.3v51.2h-12.3v-72.2h12l0.2,8.3
						c4-6.5,9.8-9.7,17.2-9.7c2.4,0,4.2,0.3,5.5,0.9L150.7,266.2L150.7,266.2z"/>
					<path class="st1" d="M162.1,236c0-2,0.6-3.7,1.8-5.1c1.2-1.4,3-2.1,5.4-2.1s4.2,0.7,5.5,2.1s1.9,3.1,1.9,5.1s-0.6,3.7-1.9,5
						s-3.1,2-5.5,2s-4.2-0.7-5.4-2S162.1,238,162.1,236z M175.4,327.4h-12.3v-72.2h12.3V327.4z"/>
					<path class="st1" d="M206.8,255.1l0.3,8c5.3-6.2,12.4-9.3,21.4-9.3c10.1,0,17,3.9,20.6,11.6c2.4-3.5,5.5-6.3,9.4-8.4
						c3.9-2.1,8.4-3.2,13.6-3.2c15.8,0,23.9,8.4,24.2,25.2v48.4H284v-47.6c0-5.2-1.2-9-3.5-11.6c-2.4-2.6-6.3-3.8-11.9-3.8
						c-4.6,0-8.4,1.4-11.4,4.1c-3,2.7-4.8,6.4-5.3,11v47.9h-12.4V280c0-10.5-5.1-15.8-15.4-15.8c-8.1,0-13.6,3.5-16.6,10.3v52.7
						h-12.3v-72.2L206.8,255.1L206.8,255.1z"/>
					<path class="st1" d="M344.9,328.7c-9.8,0-17.8-3.2-23.9-9.6c-6.1-6.4-9.2-15-9.2-25.8V291c0-7.2,1.4-13.6,4.1-19.2
						c2.7-5.6,6.6-10,11.5-13.2s10.2-4.8,16-4.8c9.4,0,16.7,3.1,21.9,9.3c5.2,6.2,7.8,15,7.8,26.6v5.1h-48.9
						c0.2,7.1,2.3,12.9,6.2,17.2c4,4.4,9,6.6,15.2,6.6c4.4,0,8-0.9,11.1-2.7c3-1.8,5.7-4.1,7.9-7.1l7.5,5.9
						C366.1,324,357,328.7,344.9,328.7L344.9,328.7z M343.4,264c-5,0-9.2,1.8-12.5,5.4s-5.5,8.7-6.3,15.2h36.2v-0.9
						c-0.4-6.3-2-11.1-5.1-14.6C352.6,265.7,348.5,264,343.4,264L343.4,264z"/>
				</g>
				<g>
					<path class="st1" d="M38.3,64.6c1.7,1.6,4.8,5.9,9.1,4.1c4.4-2,26.8-4.1,34.2-5.1c7.3-0.8,13.7,0.2,13.7,0.2
						S75.8,89.4,72.7,93.7c-3.2,4.1-19.8,27.1-23.1,31.9c-3.2,4.9-10.9,17.7-14.5,24c-3.4,6.2,2.4,5.9,2.4,5.9s13.3,0.3,16.2,0.3
						c2.7-0.2,3.2-2,3.6-3c0.5-1,1.5-3.6,3.9-7.7s8-13.3,14.4-23.3S89.1,102,94.7,94.5s12.3-16.3,13.8-18.2c1.5-2,7.9-10.2,9.2-12
						c1.4-2,1.9-1.8,4.3-2s18.3,1,24.8,1.5c6.7,0.5,16.2,0.8,22.2,1.3c6,0.5,4.3-2.6,4.3-2.6s0.3-3.8-1.4-7.9
						c-1.9-4.3-3.4-3.6-3.4-3.6c-8.6-2.5-40.5-4.1-49.6-4.1h-2.8c-12,0.2-41.7,1.9-48.3,2.5c-7.2,0.7-29.9,4.6-34,5.6
						c-4.1,1-1.7,3.5-1.7,3.5S36.4,62.8,38.3,64.6L38.3,64.6z"/>
					<path class="st1" d="M351.7,115.3c0,0-1.9-1-9.6-2.6c-7.9-1.8-9.6,2.3-9.6,2.3s-10.8,9.7-17.4,15.8
						c-6.7,5.9-14.4,10.8-19.7,13.6c-5.1,2.9-10.4,4.8-12.5,3.4c-2-1.1,0-4.3,1.5-6.9c1.5-2.8,9.7-11.8,11.8-14.3
						c2-2.5,11.6-12.3,15.7-16.3c3.9-4.1-3.1-5.4-6.3-6.2c-3.2-0.7-5.3-1.2-8.5-1.2s-4.5,2.3-4.5,2.3s-5.6,5.8-7.4,7.7
						c-1.5,2.1-17.1,18.7-22,23.6c-5,5.1-11.8,10-13.9,10.7c-2.1,0.7-6.1,1.6-9.6-2.5c-3.4-3.9-0.5-6.7,3.9-12.8
						c4.6-5.9,16.6-19.2,22.4-25.6c6-6.4,28-23.8,32.3-26.9s1.7-4.1,1.7-4.1s-3.9-2.5-6.2-3.3c-2.2-1-5.8-1.6-9.4-1.6
						s-5.1,2.1-5.1,2.1s-12.3,9.8-14.7,12c-2.4,2-29.1,27.3-33.9,32.2c-5,4.9-18.8,16.9-23.6,20.9c-4.8,3.8-9.2,5.8-11.8,3.9
						c-2.6-1.6-1.7-4.4,0-6.9c1.5-2.5,12.1-15.1,15.9-19.4s15.4-15.9,19.5-20c3.9-4.1,20-17.6,24.6-21.3c4.8-3.8-1.2-6.1-1.2-6.1
						s-3.4-2-9.1-3.1c-5.6-1.2-6.8,0.3-9.9,2.3c-3.2,2-24.4,23.3-26.7,25.6c-2.2,2.1-27.9,27.1-31.8,31
						c-4.1,3.8-17.3,15.1-19.8,16.8c-2.4,1.8-9.9,6.9-12,3.8c-2.2-3.1,2.4-5.9,2.4-5.9s11.5-10.7,15.4-15.1c4.1-4.4,1.7-11,1-12.7
						c-0.9-1.8-3.9-6.7-9.6-11.2c-5.6-4.4-11.5-4.8-15.4-4.6c-4.1,0.3-10.1,3.9-14,5.8c-3.9,2-15.4,10.3-15.4,10.3
						s-9.2,7.9-14.5,13.3c-5.1,5.2-9.4,9.8-3.6,20.5c5.8,10.8,16.4,13.3,20.7,13.8c4.1,0.5,9.6-3.8,11.5-5.3c1.9-1.6,2.2-1,3.9,1.6
						c1.5,2.6,6.3,4.4,10.8,5.2c4.3,0.7,6.2-0.3,13.9-2.5c7.5-2.1,21.7-10.5,24.4-12.3c2.7-2,2.9,1,5.3,5.1s8,5.6,13,6.1
						c5.1,0.3,7.5-0.8,10.8-2.3s12-5.6,14.5-7.4c2.6-1.6,3.1-1.8,4.1,0.8c1,2.5,1.2,4.6,9.1,9.9c7.7,5.2,20.7,2.3,23.6,1.3
						c3.1-1,8.7-3.8,10.1-4.6s2.6,1.5,5.6,4.4c2.9,2.8,8.9,2.6,12.6,0.3c3.8-2.5,1.9,0.3,1.9,0.3s-6,7.6-7.7,9.9
						c-3.1,4.1-7.5,10.5-12.1,16.9c-2.3,3.2-9.6,16.3-11.5,19.4c-1.7,3.3-1,3.1,2.1,4.6c2.9,1.6,10.8,2.1,12.6,2.1
						c1.7,0,2.4-2,2.4-2s9.7-13.9,12.8-18.7c4.5-7.1,13.3-16.5,13.3-16.5c1.7-2.4,7.1-8.3,8.7-10.3c2.7-3.1,18.3-19.1,23.4-23.8
						c5.1-4.9,18.5-16.8,22.4-20.4C357.7,117,351.7,115.3,351.7,115.3L351.7,115.3z M132.4,132.6c-4.6,3.1-16.8,11.3-19.8,12.1
						c-2.9,0.8-4.8,1.8-6.7-0.7c-1.9-2.5,3.6-7.2,3.6-7.2s10.1-8.9,14-12c4.1-3.1,15.1-11.5,17.4-12.7c2.4-1.2,4.1-2.3,6.3-0.3
						c2.2,2.1,0.3,4.1-0.3,5.1C146.4,118,136.8,129.4,132.4,132.6L132.4,132.6z"/>
				</g>
			</g>
			<path class="st2" d="M357.7,189.9c-1.5-0.7-19.7-6.9-25.1-8.2c-5.5-1.5-28.5-6.1-31.6-6.4c-2.1-0.2-19.7-2.8-24.3-3.1
				c-3.7-0.3-8.7-0.6-18-1.3c-9.2-0.7-30.9-1.6-46.5-1.8c-15.7-0.2-57.4,2.1-72.8,3c-15.6,0.8-52.3,6.2-64.1,7.9
				c-11.8,1.8-49.6,9.4-57.4,11.8c-7.7,2.3,1.4,5.9,7,8.5c5.6,2.6,11.4,1.1,11.4,1.1s11.5-2,17.3-3.1c5.8-1.1,48.4-7.4,59-9
				c10.6-1.8,50.8-5.4,61.7-6.2c10.9-0.7,41.5-0.7,50.3-0.8s38.1,1.5,39.7,1.6c16.5,1.9,26.7,3.9,26.7,3.9s15,2.6,21.5,3.9
				c6.7,1.1,31.1,7.4,36.4,9.5c5.3,2.1,7.7,2.1,9.1,1.6c1.4-0.7,4.6-7.7,4.6-7.7C363,191.7,359.1,190.7,357.7,189.9L357.7,189.9z"/>
		</g>
	</g>
</g>
</svg>
