<?xml version="1.0" encoding="utf-8"?>
<!-- Generator: Adobe Illustrator 27.9.0, SVG Export Plug-In . SVG Version: 6.00 Build 0)  -->
<svg version="1.1" id="Layer_1" xmlns="http://www.w3.org/2000/svg" xmlns:xlink="http://www.w3.org/1999/xlink" x="0px" y="0px"
	 viewBox="0 0 579 556.3" style="enable-background:new 0 0 579 556.3;" xml:space="preserve">
<style type="text/css">
	.st0{fill:#FFFFFF;}
	.st1{fill:#870C5E;}
	.st2{fill:none;stroke:#870C5E;stroke-width:3.0859;stroke-linecap:round;stroke-linejoin:round;stroke-miterlimit:10;}
</style>
<g>
	<g>
		<path class="st0" d="M271.5,129.5c21.4-17.3,42.1-35.5,64.5-51.6c14.4-10.3,29.4-19.6,45.7-26.5c1.1-0.5,2.2-0.9,3.3-1.4
			c2-0.9,3-0.8,3.2,1.9c0.3,4.5,1.5,8.9,3.5,13.1c5.7,11.8,16.9,16.2,29.1,11.4c3.4-1.3,6.4-3.2,9.3-5.3c15.7-11.6,38.4-3.6,42.8,15
			c1.4,5.9,0.6,11.7-2.2,17c-2.7,5.2-5.7,10.2-8.6,15.3c-5,8.7-6.9,17.7-2.3,27.3c7.6,16.1,28.7,21.3,43.2,10.6
			c0.8-0.6,1.4-1.6,2.9-1.8c-0.6,7.1-1.9,13.9-3.9,20.6c-7,23.3-19.4,42.7-40.1,56.1c-2.6,1.7-5.3,3.4-8.3,4.4
			c-0.6-1.3,0.7-1.7,1.3-2.3c7-7.9,11.6-17.3,13.7-27.4c2.6-12.4,0.6-24.4-5.6-35.6c-3.8-6.9-8.8-12.7-14.4-18.1
			c-0.3-1.2-0.5-2.3-0.9-3.5c-4.4-15.1-20.3-26.5-37.7-27c-1.6,0-3.2,0-4.8,0.6c-8.4,2.9-16.6,6.3-24.6,10.2
			c-24,11.5-46,26.3-67.6,41.9c-10.9,7.9-21.8,15.7-32.6,23.6c-7,5.1-14,10.1-21,15.2c-24.2,16.8-49.2,32-77.2,41.7
			c-27.4,9.4-55.5,13.2-84.2,8.5c-29.5-4.8-52.9-18.9-66.2-46.7c-9.4-19.6-11.1-40.4-7.4-61.6c4.2-24.7,14.5-46.4,32.9-63.8
			c6.6-6.2,13.8-11.5,22.4-14.5c0.2,1-0.6,1.3-1.1,1.8c-10.2,9-17.5,19.6-20.1,33.3c-1.5,8.1-1.1,15.9,0.9,23.7
			c2.3,9.1,6.7,17.1,12.5,24.4c4.1,5.1,8.2,10.3,13.8,14c7.1,11.6,18.2,16.7,31.1,18c22.9,2.3,45.1-1,66.7-8.6
			c24.5-8.5,46.2-22,66.9-37.3c1.1,0,2-0.5,2.9-1.2c5.3-4.1,10.6-8,15.9-12.1C270,131.9,271.5,131.2,271.5,129.5z"/>
		<path class="st0" d="M448.5,152.2c5.6,5.4,10.6,11.3,14.4,18.1c6.2,11.2,8.1,23.3,5.6,35.6c-2.1,10.2-6.7,19.5-13.7,27.4
			c-0.6,0.6-1.9,1-1.3,2.3c-5.2,4.5-10,9.6-15.7,13.5c-22.2,15.3-47,21.2-73.6,19.2c-36.5-2.7-66.6-19.3-93-43.6
			c-4-3.7-7.8-7.7-11.8-11.6c7-5.1,14-10.1,21-15.2c0.1,0.3,0.1,0.7,0.3,0.9c19.4,22.8,43.4,37.3,73.6,40.9
			c19.3,2.3,37.9-0.3,55.1-9.6c27.6-14.8,40.5-38.2,39.5-69.4C448.7,158,447.6,155.1,448.5,152.2z"/>
		<path class="st0" d="M85.5,174c-5.6-3.7-9.7-8.9-13.8-14c-5.8-7.3-10.2-15.4-12.5-24.4c-2-7.8-2.4-15.6-0.9-23.7
			c2.6-13.7,9.9-24.3,20.1-33.3c0.5-0.5,1.3-0.8,1.1-1.8c0,0,0,0.1,0,0.1c0.6,0.1,1.2,0,1.3-0.8c6.8-4.1,13.5-8.5,21-11.3
			c15.9-6.1,32.3-8,49.1-6.4c39.3,3.8,71.1,22.6,99.3,48.9c7.5,7,14.2,14.8,21.2,22.3c0,1.7-1.5,2.3-2.5,3.1
			c-5.3,4.1-10.6,8-15.9,12.1c-0.9,0.7-1.8,1.2-2.9,1.2c-12.5-20.1-28.8-36.4-49.2-48.5c-19.1-11.4-39.7-17.8-62.1-16.6
			c-12,0.6-23.3,3.8-33.3,10.7c-20,13.9-25.6,34.1-24.4,57.1C81.7,157.3,83.7,165.6,85.5,174z"/>
		<path class="st0" d="M486.8,109.6c0.1-14.6,12.2-26.1,27.2-26c14.9,0.1,26.9,12,26.9,26.5c-0.1,14.3-12.5,26.2-27.3,26
			C498.5,135.9,486.6,124.1,486.8,109.6z"/>
		<path class="st0" d="M420.4,20.7c10.9-0.1,19.9,8.7,20.1,19.6c0.2,10.9-8.7,20-19.9,20.2c-10.8,0.2-19.9-8.7-20-19.7
			C400.5,29.7,409.3,20.7,420.4,20.7z"/>
		<path class="st0" d="M475.2,46.8c0.1-6.9,6.2-12.5,13.3-12.3c6.9,0.2,12.7,6,12.6,12.7c-0.1,6.9-6.1,12.6-13.2,12.5
			C480.8,59.6,475,53.8,475.2,46.8z"/>
		<path class="st0" d="M80.8,76.1c-0.1,0.8-0.7,0.9-1.3,0.8C79.7,76.2,80.3,76.3,80.8,76.1z"/>
	</g>
	<g>
		<g>
			<g>
				<path class="st0" d="M135.6,319.8c-1.4,0-3-0.4-4.6-1.6l-3.9-2.8v75c0,14.6-7.3,21.7-21.7,21.7H45.1c-14.4,0-21.7-7.1-21.7-21.7
					v-94h13c5.3,0,9.6,4.3,9.6,9.4v71.6c0,8.9,3.7,12.8,12.1,12.8h34.3c8.4,0,12.1-3.9,12.1-12.8v-62l-3.9,2.8
					c-1.6,1.2-3.2,1.6-4.6,1.6c-6.6,0-11.4-9.2-4.8-14.2l23.1-17.4c0.9-0.7,2.1-0.7,3,0l23.1,17.4
					C146.9,310.5,142.1,319.8,135.6,319.8z"/>
				<path class="st0" d="M279.7,321.7c-2.8,0-5.5-1.4-6.9-4.8l-2-5l-35,57.4c-3,5-8.4,8-14.2,8H218c-5.9,0-11.2-3-14.2-8l-21.7-35.9
					v69c0,5.3-4.3,9.6-9.6,9.6h-13V305.7c0-5.2,4.3-9.4,9.6-9.4h15.1c0.5,0,1.1,0.4,1.4,0.9l34.3,56.3l32.2-53l-5.3,0.5
					c-10.3,0.9-11.6-14.8-1.4-15.8l28.8-2.8c1.1-0.2,2.1,0.5,2.7,1.6l10.7,26.8C290,317.1,284.7,321.7,279.7,321.7z M267.3,340.2h13
					V412h-22.4v-62.2C257.8,344.5,262.1,340.2,267.3,340.2z"/>
				<path class="st0" d="M415.3,412h-14.6c-4.8,0-8.7-3.6-9.4-8.2L380.8,332c-1.2-8.5-6.2-13.9-14.4-13.9h-16.5
					c-8.4,0-13.2,5.3-14.4,13.9l-5.3,36.3h22L349,364c-4.4-6,1.1-12.6,6.8-12.6c2.1,0,4.3,0.9,6,3.2l17.4,23.1c0.7,0.9,0.7,2.1,0,3
					l-17.4,23.1c-1.8,2.3-3.9,3.2-6,3.2c-5.7,0-11.2-6.6-6.8-12.6l3.2-4.3H327l-2,13.7c-0.7,4.6-4.6,8.2-9.4,8.2H301l13.7-94
					c1.8-12.1,7.3-21.7,21.9-21.7h43.2c14.6,0,20.1,9.6,21.9,21.7L415.3,412z"/>
				<path class="st0" d="M541,412h-14.6c-4.8,0-8.7-3.6-9.4-8.2L506.5,332c-1.2-8.5-6.2-13.9-14.4-13.9h-16.5
					c-8.4,0-13.2,5.3-14.4,13.9l-5.3,36.3h22l-3.2-4.3c-4.4-6,1.1-12.6,6.8-12.6c2.1,0,4.3,0.9,6,3.2l17.4,23.1c0.7,0.9,0.7,2.1,0,3
					l-17.4,23.1c-1.8,2.3-3.9,3.2-6,3.2c-5.7,0-11.2-6.6-6.8-12.6l3.2-4.3h-25.2l-2,13.7c-0.7,4.6-4.6,8.2-9.4,8.2h-14.6l13.7-94
					c1.8-12.1,7.3-21.7,21.9-21.7h43.2c14.6,0,20.1,9.6,21.9,21.7L541,412z"/>
			</g>
		</g>
		<g>
			<path class="st0" d="M28.8,479.4v-54.7h10.3v54.7H28.8z M117.1,479.4l-58.4-42.6v42.6h-9v-54.7h8.9l54.5,40.7v-40.7h9v54.7H117.1
				z M142.6,456.9v22.5h-10.3v-54.7h56.3v8.1h-45.9v16h42.8v8.1H142.6z M210.9,479.4c-12.4,0-17.2-5.4-17.2-13.2v-28.3
				c0-7.9,4.7-13.2,17.2-13.2H247c12.4,0,17.2,5.4,17.2,13.2v28.3c0,7.9-4.7,13.2-17.2,13.2H210.9z M253.9,437.8
				c0-3.3-2.2-5.1-6.8-5.1h-36.1c-4.7,0-6.8,1.8-6.8,5.1v28.4c0,3.3,2.2,5.1,6.8,5.1H247c4.7,0,6.8-1.8,6.8-5.1V437.8z M297.2,479.4
				v-46.6h-28.7v-8.1h66.9v8.1h-27.9v46.6H297.2z M342.3,479.4v-54.7h56.3v8.1h-45.9v13.7h43.6v8.1h-43.6v16.8h45.9v8.1H342.3z
				 M424.2,479.4c-12.4,0-17.2-5.4-17.2-13.2v-28.3c0-7.9,4.7-13.2,17.2-13.2h44.1v8.1h-44.1c-4.7,0-6.8,1.8-6.8,5.1v28.4
				c0,3.3,2.2,5.1,6.8,5.1h44.1v8.1H424.2z M532.1,479.4v-24.9h-44.8v24.9H477v-54.7h10.3v21.8h44.8v-21.8h10.3v54.7H532.1z"/>
			<g>
				<path class="st0" d="M28.8,479.4v-54.7h10.3v54.7H28.8z M117.1,479.4l-58.4-42.6v42.6h-9v-54.7h8.9l54.5,40.7v-40.7h9v54.7
					H117.1z M142.6,456.9v22.5h-10.3v-54.7h56.3v8.1h-45.9v16h42.8v8.1H142.6z M210.9,479.4c-12.4,0-17.2-5.4-17.2-13.2v-28.3
					c0-7.9,4.7-13.2,17.2-13.2H247c12.4,0,17.2,5.4,17.2,13.2v28.3c0,7.9-4.7,13.2-17.2,13.2H210.9z M253.9,437.8
					c0-3.3-2.2-5.1-6.8-5.1h-36.1c-4.7,0-6.8,1.8-6.8,5.1v28.4c0,3.3,2.2,5.1,6.8,5.1H247c4.7,0,6.8-1.8,6.8-5.1V437.8z
					 M297.2,479.4v-46.6h-28.7v-8.1h66.9v8.1h-27.9v46.6H297.2z M342.3,479.4v-54.7h56.3v8.1h-45.9v13.7h43.6v8.1h-43.6v16.8h45.9
					v8.1H342.3z M424.2,479.4c-12.4,0-17.2-5.4-17.2-13.2v-28.3c0-7.9,4.7-13.2,17.2-13.2h44.1v8.1h-44.1c-4.7,0-6.8,1.8-6.8,5.1
					v28.4c0,3.3,2.2,5.1,6.8,5.1h44.1v8.1H424.2z M532.1,479.4v-24.9h-44.8v24.9H477v-54.7h10.3v21.8h44.8v-21.8h10.3v54.7H532.1z"
					/>
			</g>
		</g>
	</g>
</g>
<path class="st0" d="M535.8,531.2h-504c-4.1,0-7.4-3.3-7.4-7.4v-25.2c0-4.1,3.3-7.4,7.4-7.4h504c4.1,0,7.4,3.3,7.4,7.4v25.2
	C543.2,527.9,539.9,531.2,535.8,531.2z"/>
<g>
	<g>
		<path class="st1" d="M34.5,499.9c1.8-0.3,3.9-0.5,6.3-0.5c4.2,0,7.2,1,9.2,2.8c2,1.9,3.2,4.5,3.2,8.2c0,3.7-1.2,6.8-3.3,8.9
			c-2.1,2.1-5.7,3.3-10.1,3.3c-2.1,0-3.9-0.1-5.4-0.3V499.9z M37.5,520.1c0.7,0.1,1.8,0.2,3,0.2c6.3,0,9.7-3.5,9.7-9.7
			c0-5.4-3-8.8-9.2-8.8c-1.5,0-2.7,0.1-3.5,0.3V520.1z"/>
		<path class="st1" d="M57,511.2c0-1.9,0-3.6-0.1-5.1h2.6l0.1,3.2h0.1c0.7-2.2,2.5-3.6,4.5-3.6c0.3,0,0.6,0,0.8,0.1v2.8
			c-0.3-0.1-0.6-0.1-1-0.1c-2.1,0-3.6,1.6-4,3.8c-0.1,0.4-0.1,0.9-0.1,1.4v8.7H57V511.2z"/>
		<path class="st1" d="M71.5,501.4c0,1-0.7,1.8-1.9,1.8c-1,0-1.8-0.8-1.8-1.8c0-1,0.8-1.9,1.9-1.9C70.8,499.6,71.5,500.4,71.5,501.4
			z M68.2,522.4v-16.4h3v16.4H68.2z"/>
		<path class="st1" d="M77.3,506.1l3.2,9.2c0.5,1.5,1,2.8,1.3,4.2h0.1c0.4-1.4,0.8-2.7,1.4-4.2l3.2-9.2h3.1l-6.4,16.4h-2.8
			l-6.2-16.4H77.3z"/>
		<path class="st1" d="M93.7,514.8c0.1,4,2.6,5.7,5.6,5.7c2.1,0,3.4-0.4,4.5-0.8l0.5,2.1c-1,0.5-2.8,1-5.5,1c-5,0-8.1-3.3-8.1-8.3
			s2.9-8.8,7.7-8.8c5.4,0,6.8,4.7,6.8,7.7c0,0.6-0.1,1.1-0.1,1.4H93.7z M102.4,512.7c0-1.9-0.8-4.8-4.1-4.8c-3,0-4.3,2.8-4.6,4.8
			H102.4z"/>
		<path class="st1" d="M109,510.5c0-1.7,0-3.1-0.1-4.4h2.6l0.2,2.7h0.1c0.8-1.6,2.7-3.1,5.4-3.1c2.3,0,5.8,1.4,5.8,7v9.8h-3V513
			c0-2.6-1-4.8-3.8-4.8c-2,0-3.5,1.4-4,3c-0.1,0.4-0.2,0.9-0.2,1.4v9.9h-3V510.5z"/>
		<path class="st1" d="M134.9,522.4c0.1-1.1,0.1-2.8,0.1-4.2v-19.8h2.9v10.3h0.1c1-1.8,2.9-3,5.6-3c4.1,0,6.9,3.4,6.9,8.4
			c0,5.9-3.7,8.8-7.3,8.8c-2.4,0-4.3-0.9-5.5-3.1h-0.1l-0.1,2.7H134.9z M137.9,515.9c0,0.4,0.1,0.7,0.1,1.1c0.6,2.1,2.3,3.5,4.5,3.5
			c3.1,0,5-2.5,5-6.3c0-3.3-1.7-6.1-4.9-6.1c-2,0-3.9,1.4-4.5,3.7c-0.1,0.3-0.2,0.7-0.2,1.2V515.9z"/>
		<path class="st1" d="M155.1,506.1l3.6,9.7c0.4,1.1,0.8,2.4,1,3.4h0.1c0.3-1,0.6-2.2,1-3.4l3.3-9.6h3.1l-4.5,11.7
			c-2.1,5.6-3.6,8.5-5.6,10.3c-1.5,1.3-2.9,1.8-3.7,1.9l-0.7-2.5c0.7-0.2,1.7-0.7,2.6-1.5c0.8-0.6,1.8-1.8,2.5-3.3
			c0.1-0.3,0.2-0.5,0.2-0.7c0-0.2-0.1-0.4-0.2-0.8l-6.1-15.1H155.1z"/>
		<path class="st1" d="M180.2,502.1h-6.9v-2.5h16.9v2.5h-7v20.3h-3V502.1z"/>
		<path class="st1" d="M191.1,511.2c0-1.9,0-3.6-0.1-5.1h2.6l0.1,3.2h0.1c0.7-2.2,2.5-3.6,4.5-3.6c0.3,0,0.6,0,0.8,0.1v2.8
			c-0.3-0.1-0.6-0.1-1-0.1c-2.1,0-3.6,1.6-4,3.8c-0.1,0.4-0.1,0.9-0.1,1.4v8.7h-2.9V511.2z"/>
		<path class="st1" d="M215.9,518c0,1.7,0,3.2,0.1,4.5h-2.6l-0.2-2.7h-0.1c-0.8,1.3-2.5,3-5.4,3c-2.6,0-5.7-1.4-5.7-7.2v-9.6h3v9.1
			c0,3.1,0.9,5.2,3.7,5.2c2,0,3.4-1.4,3.9-2.7c0.2-0.4,0.3-1,0.3-1.5v-10.1h3V518z"/>
		<path class="st1" d="M220.4,519.4c0.9,0.6,2.4,1.2,3.9,1.2c2.2,0,3.2-1.1,3.2-2.4c0-1.4-0.8-2.2-3-3c-2.9-1-4.3-2.7-4.3-4.6
			c0-2.6,2.1-4.8,5.7-4.8c1.7,0,3.1,0.5,4,1l-0.7,2.2c-0.6-0.4-1.8-0.9-3.4-0.9c-1.8,0-2.7,1-2.7,2.2c0,1.4,1,2,3.1,2.8
			c2.8,1.1,4.3,2.5,4.3,4.9c0,2.9-2.2,4.9-6.1,4.9c-1.8,0-3.5-0.4-4.6-1.1L220.4,519.4z"/>
		<path class="st1" d="M237.8,501.3v4.7h4.3v2.3h-4.3v8.8c0,2,0.6,3.2,2.2,3.2c0.8,0,1.4-0.1,1.7-0.2l0.1,2.2
			c-0.6,0.2-1.5,0.4-2.6,0.4c-1.4,0-2.5-0.4-3.2-1.3c-0.8-0.9-1.2-2.3-1.2-4.3v-8.9h-2.5v-2.3h2.5v-3.9L237.8,501.3z"/>
		<path class="st1" d="M303,499.9c1.4-0.2,3.3-0.4,5.7-0.4c2.9,0,5,0.7,6.4,1.9c1.3,1.1,2,2.7,2,4.8c0,2.1-0.6,3.7-1.8,4.9
			c-1.6,1.7-4.1,2.5-7,2.5c-0.9,0-1.7,0-2.4-0.2v9.1H303V499.9z M305.9,510.9c0.6,0.2,1.5,0.2,2.4,0.2c3.6,0,5.7-1.7,5.7-4.9
			c0-3-2.1-4.5-5.4-4.5c-1.3,0-2.3,0.1-2.8,0.2V510.9z"/>
		<path class="st1" d="M334.9,514.1c0,6.1-4.2,8.7-8.2,8.7c-4.4,0-7.9-3.3-7.9-8.4c0-5.5,3.6-8.7,8.1-8.7
			C331.7,505.7,334.9,509.1,334.9,514.1z M321.9,514.3c0,3.6,2.1,6.3,5,6.3c2.8,0,5-2.7,5-6.4c0-2.8-1.4-6.3-4.9-6.3
			S321.9,511.2,321.9,514.3z"/>
		<path class="st1" d="M339.6,506.1l2.2,8.3c0.5,1.8,0.9,3.5,1.2,5.2h0.1c0.4-1.7,0.9-3.4,1.5-5.2l2.7-8.4h2.5l2.5,8.2
			c0.6,2,1.1,3.7,1.5,5.4h0.1c0.3-1.7,0.7-3.4,1.3-5.3l2.3-8.2h2.9l-5.3,16.4h-2.7l-2.5-7.8c-0.6-1.8-1.1-3.5-1.5-5.4h-0.1
			c-0.4,2-0.9,3.7-1.5,5.4l-2.6,7.8h-2.7l-4.9-16.4H339.6z"/>
		<path class="st1" d="M364.6,514.8c0.1,4,2.6,5.7,5.6,5.7c2.1,0,3.4-0.4,4.5-0.8l0.5,2.1c-1.1,0.5-2.8,1-5.5,1
			c-5,0-8.1-3.3-8.1-8.3s2.9-8.8,7.7-8.8c5.4,0,6.8,4.7,6.8,7.7c0,0.6-0.1,1.1-0.1,1.4H364.6z M373.4,512.7c0-1.9-0.8-4.8-4.1-4.8
			c-3,0-4.3,2.8-4.6,4.8H373.4z"/>
		<path class="st1" d="M380,511.2c0-1.9,0-3.6-0.1-5.1h2.6l0.1,3.2h0.1c0.7-2.2,2.5-3.6,4.5-3.6c0.3,0,0.6,0,0.8,0.1v2.8
			c-0.3-0.1-0.6-0.1-1-0.1c-2.1,0-3.6,1.6-4,3.8c-0.1,0.4-0.1,0.9-0.1,1.4v8.7H380V511.2z"/>
		<path class="st1" d="M392.4,514.8c0.1,4,2.6,5.7,5.6,5.7c2.1,0,3.4-0.4,4.5-0.8l0.5,2.1c-1.1,0.5-2.8,1-5.5,1
			c-5,0-8.1-3.3-8.1-8.3s2.9-8.8,7.7-8.8c5.4,0,6.8,4.7,6.8,7.7c0,0.6-0.1,1.1-0.1,1.4H392.4z M401.1,512.7c0-1.9-0.8-4.8-4.1-4.8
			c-3,0-4.3,2.8-4.6,4.8H401.1z"/>
		<path class="st1" d="M421.8,498.4v19.8c0,1.5,0,3.1,0.1,4.2h-2.7l-0.1-2.8h-0.1c-0.9,1.8-2.9,3.2-5.6,3.2c-4,0-7-3.4-7-8.3
			c0-5.5,3.4-8.8,7.3-8.8c2.5,0,4.2,1.2,4.9,2.5h0.1v-9.8H421.8z M418.8,512.7c0-0.4,0-0.9-0.1-1.3c-0.4-1.9-2.1-3.5-4.3-3.5
			c-3.1,0-4.9,2.7-4.9,6.3c0,3.3,1.6,6.1,4.8,6.1c2,0,3.8-1.3,4.4-3.6c0.1-0.4,0.1-0.8,0.1-1.3V512.7z"/>
		<path class="st1" d="M433.8,522.4c0.1-1.1,0.1-2.8,0.1-4.2v-19.8h2.9v10.3h0.1c1.1-1.8,2.9-3,5.6-3c4.1,0,6.9,3.4,6.9,8.4
			c0,5.9-3.7,8.8-7.3,8.8c-2.4,0-4.3-0.9-5.5-3.1h-0.1l-0.1,2.7H433.8z M436.9,515.9c0,0.4,0.1,0.7,0.1,1.1c0.6,2.1,2.3,3.5,4.5,3.5
			c3.1,0,5-2.5,5-6.3c0-3.3-1.7-6.1-4.9-6.1c-2,0-3.9,1.4-4.5,3.7c-0.1,0.3-0.2,0.7-0.2,1.2V515.9z"/>
		<path class="st1" d="M454.1,506.1l3.6,9.7c0.4,1.1,0.8,2.4,1.1,3.4h0.1c0.3-1,0.6-2.2,1-3.4l3.3-9.6h3.1l-4.5,11.7
			c-2.1,5.6-3.6,8.5-5.6,10.3c-1.5,1.3-2.9,1.8-3.7,1.9l-0.7-2.5c0.7-0.2,1.7-0.7,2.6-1.5c0.8-0.6,1.8-1.8,2.5-3.3
			c0.1-0.3,0.2-0.5,0.2-0.7c0-0.2-0.1-0.4-0.2-0.8l-6.1-15.1H454.1z"/>
		<path class="st1" d="M479.2,502.1h-6.9v-2.5h16.9v2.5h-7v20.3h-3V502.1z"/>
		<path class="st1" d="M498.5,522.4l-0.2-2.1h-0.1c-0.9,1.3-2.7,2.4-5,2.4c-3.3,0-5-2.3-5-4.7c0-4,3.5-6.1,9.9-6.1v-0.3
			c0-1.4-0.4-3.8-3.7-3.8c-1.5,0-3.1,0.5-4.3,1.2l-0.7-2c1.4-0.9,3.3-1.5,5.4-1.5c5,0,6.2,3.4,6.2,6.7v6.1c0,1.4,0.1,2.8,0.3,3.9
			H498.5z M498,514.1c-3.3-0.1-6.9,0.5-6.9,3.7c0,1.9,1.3,2.8,2.8,2.8c2.1,0,3.5-1.4,4-2.7c0.1-0.3,0.2-0.6,0.2-0.9V514.1z"/>
		<path class="st1" d="M505.7,498.4h3v24h-3V498.4z"/>
		<path class="st1" d="M513.7,498.4h3v24h-3V498.4z"/>
		<path class="st1" d="M522.8,506.1l3.6,9.7c0.4,1.1,0.8,2.4,1.1,3.4h0.1c0.3-1,0.6-2.2,1-3.4l3.3-9.6h3.1l-4.5,11.7
			c-2.1,5.6-3.6,8.5-5.6,10.3c-1.5,1.3-2.9,1.8-3.7,1.9l-0.7-2.5c0.7-0.2,1.7-0.7,2.6-1.5c0.8-0.6,1.8-1.8,2.5-3.3
			c0.1-0.3,0.2-0.5,0.2-0.7c0-0.2-0.1-0.4-0.2-0.8l-6.1-15.1H522.8z"/>
	</g>
</g>
<polyline class="st2" points="276.9,521 292.2,513.4 253.9,513.4 270.1,506.1 "/>
</svg>
