<?xml version="1.0" encoding="utf-8"?>
<!-- Generator: Adobe Illustrator 27.9.0, SVG Export Plug-In . SVG Version: 6.00 Build 0)  -->
<svg version="1.1" id="Layer_1" xmlns="http://www.w3.org/2000/svg" xmlns:xlink="http://www.w3.org/1999/xlink" x="0px" y="0px"
	 viewBox="0 0 138 42" style="enable-background:new 0 0 138 42;" xml:space="preserve">
<style type="text/css">
	.st0{fill:#3075F1;}
	.st1{fill:#FBB006;}
	.st2{fill:#E73225;}
	.st3{fill:#239B41;}
	.st4{fill:#6E6F72;}
</style>
<g>
	<path class="st0" d="M36.5,16c-1.2,0-2.5,0-3.7,0c-0.1,0-0.1,0-0.2,0c-0.3,0-0.3,0-0.3-0.3c0-0.9,0-1.9,0-2.8c0-0.3,0-0.3,0.3-0.3
		c0.1,0,0.1,0,0.2,0c3.6,0,7.2,0,10.8,0c0.2,0,0.3,0,0.3,0.3c0.1,0.5,0.1,0.9,0.1,1.4c0,0.2,0,0.4,0,0.6c0,0.6-0.1,1.2-0.1,1.8
		c-0.1,0.7-0.3,1.4-0.4,2c-0.1,0.4-0.3,0.7-0.4,1.1c-0.3,0.7-0.6,1.3-1.1,1.9c-0.2,0.3-0.5,0.6-0.7,0.9c-0.3,0.3-0.6,0.6-0.9,0.8
		c-0.3,0.3-0.7,0.6-1.1,0.8c-0.5,0.4-1.1,0.7-1.6,0.9c-0.7,0.3-1.4,0.6-2.2,0.7c-0.4,0.1-0.7,0.2-1.1,0.2c-0.3,0.1-0.5,0.1-0.8,0.1
		c-0.5,0-1,0.1-1.5,0c-0.5,0-1.1,0-1.6-0.1c-0.3,0-0.7-0.1-1-0.2c-0.2-0.1-0.5-0.1-0.8-0.2c-0.3-0.1-0.6-0.2-1-0.3
		c-0.5-0.2-0.9-0.4-1.4-0.6c-0.6-0.3-1.1-0.6-1.6-1c-0.9-0.6-1.6-1.3-2.3-2.2c-0.5-0.6-0.9-1.2-1.2-1.8c-0.1-0.3-0.3-0.5-0.4-0.8
		c-0.2-0.5-0.4-0.9-0.6-1.4c-0.2-0.4-0.2-0.8-0.3-1.2c0-0.2-0.1-0.3-0.1-0.5c0-0.1,0-0.2-0.1-0.4c0,0,0-0.1,0-0.1
		c0-0.5-0.1-1.1-0.1-1.6c0-0.7,0-1.4,0.1-2.1c0.1-0.4,0.2-0.9,0.3-1.3c0.1-0.4,0.3-0.9,0.5-1.3c0.1-0.3,0.3-0.6,0.4-0.9
		c0.2-0.3,0.3-0.6,0.5-0.8c0.2-0.4,0.5-0.8,0.8-1.1c0.4-0.5,0.9-1,1.3-1.5C24,4.3,24.5,4,24.9,3.6c0.7-0.5,1.5-1,2.3-1.3
		C28,2,28.8,1.7,29.7,1.5c0.5-0.1,1-0.2,1.5-0.2c0.6-0.1,1.3-0.1,2,0c0.4,0,0.8,0.1,1.1,0.1c0.5,0.1,1,0.2,1.5,0.3
		c0.8,0.2,1.5,0.5,2.2,0.9C38.8,3,39.6,3.4,40.3,4c0.2,0.1,0.3,0.3,0.5,0.4c0.2,0.1,0.2,0.2,0,0.4c-0.6,0.7-1.3,1.3-1.9,2
		c0,0-0.1,0.1-0.1,0.1c-0.2,0.2-0.2,0.2-0.4,0c-0.2-0.2-0.4-0.4-0.7-0.5c-0.6-0.5-1.3-0.8-2-1.1c-0.3-0.1-0.6-0.2-1-0.3
		c-0.3-0.1-0.6-0.2-0.9-0.2c-0.5-0.1-0.9-0.1-1.4-0.1c-0.5,0-1,0.1-1.4,0.1c-0.3,0-0.5,0.1-0.8,0.2c-0.5,0.1-0.9,0.3-1.4,0.5
		c-0.7,0.3-1.3,0.7-1.9,1.1c-0.6,0.4-1.1,1-1.5,1.5c-0.5,0.7-1,1.4-1.3,2.2c-0.3,0.8-0.6,1.7-0.6,2.6c-0.1,0.8,0,1.6,0.1,2.4
		c0.1,0.6,0.3,1.2,0.5,1.8c0.1,0.4,0.3,0.7,0.5,1c0.4,0.7,0.9,1.4,1.4,2c0.5,0.5,1.1,1,1.7,1.4c0.6,0.4,1.2,0.6,1.9,0.9
		c0.6,0.2,1.2,0.3,1.7,0.4c0.5,0.1,0.9,0.1,1.4,0.1c0.5,0,1.1-0.1,1.6-0.2c1-0.2,1.9-0.5,2.7-1c0.4-0.2,0.7-0.5,1.1-0.8
		c0.4-0.3,0.6-0.6,1-1c0.2-0.2,0.3-0.5,0.5-0.7c0.2-0.4,0.4-0.9,0.6-1.4c0.1-0.3,0.2-0.6,0.2-0.9c0-0.2,0.1-0.4,0.1-0.5
		c0-0.3,0-0.3-0.3-0.3C39.1,16,37.8,16,36.5,16z"/>
	<path class="st0" d="M96,18.6c0,2.3,0,4.7,0,7c0,1-0.2,2-0.5,2.9c-0.2,0.7-0.5,1.4-0.9,2c-0.3,0.4-0.6,0.8-0.9,1.1
		c-0.4,0.4-0.8,0.6-1.2,0.9c-0.5,0.3-1.1,0.5-1.7,0.7c-0.3,0.1-0.7,0.2-1,0.2c-0.5,0.1-1.1,0.1-1.6,0.1c-0.3,0-0.7-0.1-1-0.1
		c-0.6-0.1-1.1-0.2-1.7-0.4c-0.5-0.2-1-0.4-1.4-0.7c-0.2-0.1-0.4-0.2-0.5-0.4c-0.3-0.3-0.6-0.6-0.9-0.9c-0.4-0.5-0.8-1-1.1-1.5
		c-0.1-0.1-0.1-0.3-0.2-0.4c-0.1-0.2,0-0.3,0.2-0.4c0.4-0.2,0.8-0.3,1.2-0.5c0.3-0.1,0.6-0.2,0.8-0.4c0.2-0.1,0.4-0.1,0.6-0.2
		c0.1,0,0.2,0,0.2,0.1c0.1,0.2,0.2,0.5,0.4,0.7c0.6,0.8,1.3,1.5,2.3,1.8c0.5,0.2,1.1,0.2,1.6,0.2c0.4,0,0.7-0.1,1.1-0.2
		c1.1-0.3,2-1,2.4-2.1c0.3-0.7,0.5-1.5,0.5-2.3c0-0.4,0-0.7,0-1.1c0-0.1,0-0.2,0-0.2c-0.1-0.1-0.2,0-0.2,0.1
		c-0.2,0.3-0.5,0.5-0.8,0.7c-0.7,0.5-1.5,0.8-2.4,0.9c-0.4,0.1-0.7,0.1-1.1,0.1c-0.6,0-1.1-0.1-1.7-0.3c-0.9-0.2-1.7-0.6-2.5-1.1
		c-0.5-0.3-0.9-0.7-1.3-1.2c-0.5-0.5-0.9-1.1-1.2-1.7c-0.3-0.5-0.5-1-0.6-1.6c-0.1-0.3-0.2-0.7-0.2-1c0-0.5-0.1-1-0.1-1.5
		c0-0.4,0.1-0.9,0.2-1.3c0.1-0.6,0.3-1.1,0.5-1.6c0.3-0.7,0.7-1.4,1.3-2c0.3-0.3,0.6-0.7,1-1c0.5-0.4,0.9-0.7,1.5-1
		c0.3-0.1,0.5-0.3,0.8-0.4c0.5-0.2,1.1-0.3,1.7-0.4c0.5-0.1,1.1-0.1,1.6,0c1,0.1,1.8,0.4,2.6,1c0.3,0.2,0.5,0.4,0.7,0.6
		c0,0,0.1,0.1,0.1,0.1c0.1,0.1,0.2,0,0.2-0.1c0-0.1,0-0.2,0-0.4c0-0.2,0-0.4,0-0.6c0-0.2,0-0.2,0.2-0.2c0.9,0,1.9,0,2.8,0
		c0.2,0,0.2,0,0.2,0.2c0,0.8,0,1.6,0,2.3C96,15,96,16.8,96,18.6z M88.6,23.1c0.5,0,1.1-0.1,1.6-0.3c0.8-0.3,1.4-0.8,1.8-1.5
		c0.4-0.5,0.6-1.1,0.8-1.7c0.1-0.6,0.1-1.2,0.1-1.8c0-0.7-0.2-1.3-0.5-2c-0.3-0.7-0.8-1.3-1.4-1.7c-1-0.7-2-0.9-3.2-0.7
		c-0.6,0.1-1.1,0.3-1.7,0.7c-0.6,0.5-1.1,1-1.5,1.7c-0.3,0.6-0.5,1.2-0.5,1.8c-0.1,0.4,0,0.9,0,1.3c0,0.5,0.2,0.9,0.3,1.3
		c0.3,0.9,0.9,1.6,1.6,2.1C86.8,22.9,87.6,23.2,88.6,23.1z"/>
	<path class="st1" d="M70.9,26.3c-0.5,0-1-0.1-1.4-0.1c-0.7-0.1-1.4-0.3-2-0.6c-0.6-0.3-1.1-0.6-1.5-1c-0.2-0.2-0.4-0.4-0.6-0.6
		c-0.4-0.4-0.7-0.8-1-1.2c-0.2-0.3-0.4-0.7-0.6-1c-0.2-0.4-0.3-0.9-0.5-1.3c0,0,0,0,0-0.1c-0.1-0.9-0.3-1.8-0.2-2.7
		c0-0.3,0.1-0.7,0.1-1c0.1-0.4,0.1-0.9,0.4-1.3c0.1-0.2,0.2-0.4,0.2-0.7c0.1-0.2,0.2-0.4,0.3-0.6c0.2-0.3,0.4-0.6,0.6-0.9
		c0.4-0.4,0.7-0.9,1.2-1.2c0.3-0.2,0.5-0.4,0.8-0.6c0.4-0.2,0.8-0.4,1.2-0.6c0.6-0.2,1.2-0.4,1.8-0.5c0.3-0.1,0.7-0.1,1-0.1
		c1.2-0.1,2.3,0.1,3.4,0.5c0.5,0.2,1,0.4,1.4,0.7c0.6,0.4,1.2,0.9,1.7,1.4c0.5,0.6,0.9,1.2,1.2,1.8c0.3,0.7,0.6,1.4,0.7,2.2
		c0.1,0.8,0.1,1.6,0.1,2.5c0,0.4-0.1,0.8-0.2,1.2c-0.2,0.8-0.5,1.5-1,2.2c-0.4,0.7-1,1.3-1.6,1.8c-0.4,0.3-0.8,0.6-1.2,0.8
		c-0.5,0.3-1,0.5-1.6,0.7c-0.3,0.1-0.7,0.2-1.1,0.2C71.9,26.3,71.4,26.3,70.9,26.3z M66.4,18.2c0,0.3,0,0.5,0.1,0.8
		c0.1,0.5,0.2,1,0.4,1.5c0.5,1,1.2,1.8,2.2,2.3c1.2,0.5,2.4,0.6,3.6,0.1c1-0.4,1.7-1.1,2.2-2c0.3-0.5,0.4-1,0.5-1.5
		c0.1-0.6,0.1-1.3,0-1.9c-0.1-0.7-0.3-1.3-0.7-1.8c-0.3-0.4-0.6-0.8-1-1.2c-0.6-0.5-1.2-0.8-2-0.9c-0.3-0.1-0.7-0.1-1-0.1
		c-0.4,0-0.8,0.1-1.2,0.2c-0.6,0.2-1.2,0.5-1.7,0.9c-0.3,0.3-0.6,0.7-0.9,1.1C66.7,16.3,66.5,17.2,66.4,18.2z"/>
	<path class="st2" d="M53.6,26.3c-0.7,0-1.1,0-1.6-0.1c-0.4-0.1-0.8-0.1-1.2-0.3c-0.5-0.2-0.9-0.3-1.4-0.6c-0.4-0.2-0.8-0.4-1.1-0.7
		c-0.5-0.4-1-0.8-1.3-1.4c-0.2-0.2-0.3-0.4-0.5-0.7c-0.4-0.7-0.7-1.3-0.9-2c-0.3-1-0.3-2-0.3-3.1c0-0.4,0.1-0.7,0.2-1.1
		c0.1-0.5,0.2-0.9,0.4-1.3c0.1-0.3,0.3-0.6,0.4-0.9c0.2-0.4,0.4-0.7,0.7-1c0.2-0.3,0.4-0.5,0.7-0.7c0.4-0.3,0.7-0.7,1.2-0.9
		c0.4-0.3,0.8-0.5,1.3-0.7c0.7-0.3,1.5-0.5,2.3-0.6c0.9-0.1,1.7-0.1,2.5,0.1c1,0.2,1.9,0.5,2.7,1c0.9,0.5,1.6,1.2,2.3,2.1
		c0.4,0.6,0.7,1.2,1,1.8c0.2,0.4,0.3,0.8,0.4,1.2c0.1,0.6,0.2,1.2,0.2,1.9c0,0.8-0.2,1.6-0.4,2.4c-0.3,0.8-0.6,1.6-1.2,2.3
		c-0.2,0.3-0.5,0.6-0.8,0.9c-0.2,0.2-0.5,0.4-0.7,0.6c-0.4,0.3-0.8,0.6-1.3,0.8c-0.7,0.4-1.4,0.6-2.1,0.7
		C54.5,26.2,53.9,26.3,53.6,26.3z M48.8,18.3c0,0.6,0.1,1.3,0.4,1.9c0.4,1.1,1.1,1.9,2.2,2.4c0.8,0.4,1.6,0.6,2.4,0.5
		c0.6,0,1.2-0.2,1.8-0.5c0.4-0.2,0.7-0.4,1-0.7c0.3-0.3,0.6-0.7,0.8-1c0.4-0.7,0.6-1.4,0.7-2.2c0.1-0.6,0-1.2-0.1-1.8
		c-0.3-1.1-0.8-2-1.7-2.6c-1.1-0.9-2.4-1.1-3.8-0.8c-1.1,0.3-2,0.9-2.6,1.8C49.1,16.2,48.8,17.1,48.8,18.3z"/>
	<path class="st2" d="M111.3,26.3c-0.3,0-0.8,0-1.3-0.1c-0.3-0.1-0.7-0.1-1-0.2c-0.2-0.1-0.4-0.2-0.6-0.2c-0.6-0.2-1.1-0.5-1.6-0.9
		c-0.8-0.6-1.5-1.3-2-2.2c-0.2-0.3-0.3-0.5-0.5-0.8c-0.3-0.6-0.5-1.1-0.6-1.8c-0.1-0.7-0.2-1.5-0.2-2.3c0-0.7,0.1-1.4,0.3-2
		c0.2-0.7,0.4-1.4,0.8-2c0.2-0.4,0.5-0.8,0.8-1.2c0.4-0.4,0.8-0.8,1.3-1.2c0.6-0.5,1.3-0.8,2-1c0.5-0.2,1.1-0.3,1.6-0.3
		c0.3,0,0.5,0,0.8,0c0.7,0,1.4,0.1,2,0.3c0.8,0.3,1.5,0.6,2.2,1.2c0.8,0.7,1.5,1.5,2,2.4c0.3,0.6,0.6,1.2,0.8,1.8
		c0,0.1,0.1,0.2,0.1,0.3c-0.1,0.1-0.2,0.1-0.3,0.1c-0.4,0.2-0.8,0.4-1.2,0.5c-0.6,0.2-1.2,0.5-1.8,0.7c-0.8,0.3-1.7,0.7-2.5,1
		c-0.7,0.3-1.4,0.6-2.1,0.9c-0.8,0.3-1.5,0.6-2.3,0.9c-0.1,0.1-0.2,0.1-0.4,0.2c-0.2,0.1-0.2,0.1-0.1,0.3c0.1,0.1,0.1,0.2,0.2,0.3
		c0.3,0.4,0.6,0.8,1.1,1.2c0.5,0.4,1.2,0.6,1.8,0.7c0.8,0.1,1.6,0.1,2.4-0.2c0.9-0.3,1.6-0.9,2.1-1.6c0,0,0-0.1,0.1-0.1
		c0.1-0.2,0.2-0.2,0.3-0.1c0.2,0.2,0.5,0.3,0.7,0.5c0.6,0.4,1.1,0.8,1.7,1.1c0.1,0.1,0.1,0.2,0,0.2c-0.2,0.3-0.5,0.6-0.8,0.9
		c-0.3,0.3-0.5,0.6-0.9,0.8c-0.4,0.3-0.8,0.6-1.2,0.8c-0.4,0.2-0.9,0.4-1.3,0.6C113.1,26.2,112.3,26.3,111.3,26.3z M111.2,13.2
		c-0.2,0-0.3,0-0.5,0c-0.7,0.1-1.4,0.4-2,0.9c-0.5,0.4-0.8,0.8-1.1,1.3c-0.4,0.7-0.6,1.5-0.6,2.3c0,0.2,0,0.3,0.2,0.2
		c0.5-0.2,1-0.4,1.5-0.6c1.1-0.5,2.3-0.9,3.4-1.4c0.6-0.3,1.2-0.5,1.9-0.8c0.2-0.1,0.2-0.1,0.1-0.3c-0.2-0.4-0.5-0.6-0.8-0.9
		C112.7,13.4,112,13.3,111.2,13.2z"/>
	<path class="st3" d="M98.4,13.9c0-3.8,0-7.6,0-11.4c0-0.1,0-0.1,0-0.2c0-0.2,0-0.2,0.2-0.2c1,0,2,0,3,0c0.2,0,0.3,0,0.3,0.3
		c0,0.1,0,0.1,0,0.2c0,7.6,0,15.3,0,22.9c0,0.4,0,0.4-0.4,0.4c-0.9,0-1.9,0-2.8,0c-0.3,0-0.3,0-0.3-0.3
		C98.4,21.6,98.4,17.8,98.4,13.9z"/>
	<path class="st4" d="M24.8,36.5c0-1.3,0-2.5,0-3.8c0-0.1,0-0.1,0-0.2c0-0.1,0.1-0.2,0.2-0.2c0,0,0.1,0,0.1,0c1.2,0,2.4,0,3.6,0
		c0.8,0,1.5,0.3,2,0.8c0.3,0.3,0.5,0.7,0.6,1.2c0.1,0.4,0.1,0.8,0,1.1c-0.1,0.5-0.2,0.9-0.6,1.3c-0.3,0.3-0.6,0.6-1,0.7
		c-0.2,0-0.2,0.1-0.1,0.2c0.1,0.2,0.2,0.4,0.3,0.5c0.4,0.6,0.7,1.2,1.1,1.8c0.1,0.1,0.2,0.2,0.2,0.4c0.1,0.1,0.1,0.2-0.1,0.2
		c-0.5,0-0.9,0-1.4,0c-0.4,0-0.4,0-0.6-0.4c-0.3-0.6-0.7-1.2-1-1.8c-0.1-0.2-0.2-0.4-0.3-0.5c-0.1-0.1-0.2-0.2-0.3-0.2
		c-0.3,0-0.6,0-0.8,0c-0.2,0-0.3,0-0.3,0.3c0,0.8,0,1.5,0,2.3c0,0.1,0,0.1,0,0.2c0,0.1,0,0.2-0.2,0.2c-0.5,0-0.9,0-1.4,0
		c-0.1,0-0.2,0-0.2-0.2c0-0.1,0-0.1,0-0.2C24.8,39,24.8,37.7,24.8,36.5z M27.7,36.1c0.2,0,0.5,0,0.7,0c0.2,0,0.4,0,0.5-0.1
		c0.4-0.2,0.7-0.5,0.7-1c0-0.4-0.2-0.9-0.6-1c-0.2-0.1-0.4-0.1-0.6-0.1c-0.5,0-1.1,0-1.6,0c-0.2,0-0.2,0-0.2,0.3c0,0.3,0,0.6,0,0.9
		c0,0.3,0,0.6,0,0.8c0,0.2,0,0.2,0.2,0.2C27.1,36.1,27.4,36.1,27.7,36.1z"/>
	<path class="st4" d="M55,34.6c0.5,0,1,0,1.5,0c0.1,0,0.1,0.1,0.2,0.1c0.1,0.6,0.3,1.1,0.5,1.7c0.1,0.5,0.3,1,0.4,1.5
		c0,0.2,0.1,0.3,0.2,0.5c0.2-0.1,0.2-0.3,0.2-0.5c0.2-0.5,0.3-0.9,0.5-1.4c0.1-0.4,0.2-0.8,0.4-1.2c0.1-0.2,0.1-0.4,0.2-0.6
		c0-0.2,0.1-0.2,0.3-0.2c0.3,0,0.6,0,1,0c0.2,0,0.3,0,0.3,0.2c0.1,0.3,0.2,0.6,0.3,0.9c0.3,0.8,0.6,1.7,0.8,2.5c0,0.1,0,0.1,0.1,0.1
		c0.1,0,0.1-0.1,0.1-0.1c0.1-0.3,0.2-0.5,0.2-0.8c0.2-0.5,0.3-1.1,0.4-1.6c0.1-0.3,0.2-0.6,0.3-1c0-0.2,0.1-0.2,0.2-0.2
		c0.4,0,0.9,0,1.3,0c0.2,0,0.2,0,0.1,0.2c-0.3,0.9-0.5,1.7-0.8,2.6c-0.2,0.7-0.4,1.5-0.7,2.2c-0.1,0.3-0.1,0.5-0.2,0.8
		c-0.1,0.1-0.1,0.2-0.3,0.2c-0.4,0-0.8,0-1.3,0c-0.2,0-0.2-0.1-0.3-0.2c-0.2-0.6-0.4-1.2-0.6-1.8c-0.2-0.5-0.3-1.1-0.5-1.6
		c0,0,0,0,0,0c0-0.1,0-0.2-0.1-0.2c-0.1,0-0.1,0.1-0.1,0.2c-0.3,0.8-0.5,1.6-0.8,2.4c-0.1,0.3-0.2,0.7-0.3,1
		c-0.1,0.2-0.1,0.2-0.3,0.2c-0.4,0-0.8,0-1.3,0c-0.1,0-0.2,0-0.3-0.2c-0.2-0.6-0.4-1.3-0.6-1.9c-0.2-0.7-0.4-1.5-0.7-2.2
		C55.3,35.8,55.1,35.2,55,34.6z"/>
	<path class="st4" d="M35.9,38.1c-0.6,0-1.3,0-1.9,0c-0.3,0-0.3,0.1-0.2,0.3c0.2,0.6,0.7,1,1.4,1.1c0.4,0.1,0.8,0,1.1-0.2
		c0.2-0.1,0.4-0.2,0.5-0.3c0.2-0.1,0.3-0.1,0.4,0.1c0.1,0.2,0.3,0.4,0.4,0.6c0.1,0.1,0.1,0.2,0,0.3c-0.2,0.2-0.5,0.3-0.8,0.5
		c-0.4,0.2-0.8,0.2-1.3,0.2c-0.5,0-0.9,0-1.4-0.2c-0.7-0.2-1.3-0.7-1.6-1.4c-0.4-0.6-0.4-1.3-0.4-2c0-0.7,0.3-1.4,0.8-1.9
		c0.5-0.5,1.1-0.8,1.8-0.9c0.5-0.1,0.9,0,1.3,0.1c0.3,0.1,0.7,0.2,0.9,0.5c0.6,0.5,0.9,1.1,1.1,1.8c0.1,0.3,0.1,0.6,0.1,0.9
		c0,0.3,0,0.3-0.3,0.3C37.2,38.1,36.6,38.1,35.9,38.1z M35.2,37c0.2,0,0.4,0,0.6,0c0.2,0,0.4,0,0.6,0c0.2,0,0.2,0,0.2-0.2
		c0,0,0-0.1,0-0.1c-0.1-0.4-0.4-0.7-0.8-0.9c-0.2-0.1-0.5-0.1-0.7-0.1c-0.7,0-1.1,0.4-1.3,1c-0.1,0.2,0,0.3,0.2,0.3
		C34.4,37,34.8,37,35.2,37z"/>
	<path class="st4" d="M52.2,38.1c-0.6,0-1.2,0-1.8,0c-0.1,0-0.1,0-0.2,0c-0.2,0-0.2,0-0.2,0.2c0.2,0.8,1,1.3,1.8,1.2
		c0.4,0,0.9-0.2,1.2-0.4c0.2-0.1,0.3-0.1,0.4,0.1c0.1,0.2,0.3,0.4,0.4,0.6c0.1,0.1,0.1,0.2,0,0.3c-0.2,0.2-0.4,0.3-0.6,0.4
		c-0.5,0.2-1.1,0.3-1.6,0.3c-0.7,0-1.4-0.1-2-0.6c-0.6-0.5-1-1.1-1.1-1.8c-0.1-0.4-0.1-0.7-0.1-1.1c0-0.3,0.1-0.6,0.2-1
		c0.2-0.4,0.4-0.8,0.7-1.1c0.4-0.4,0.8-0.6,1.3-0.7c0.6-0.1,1.1-0.1,1.7,0c0.7,0.2,1.3,0.6,1.6,1.2c0.3,0.5,0.5,1.1,0.5,1.8
		c0,0.1,0,0.2,0,0.3c0,0.2,0,0.3-0.3,0.3c-0.2,0-0.5,0-0.7,0C53.1,38.1,52.7,38.1,52.2,38.1z M51.5,37c0.4,0,0.8,0,1.2,0
		c0.2,0,0.2-0.1,0.2-0.3c-0.1-0.5-0.4-0.8-0.9-1c-0.2-0.1-0.4-0.1-0.7-0.1c-0.5,0-1.1,0.4-1.3,1.1C50,37,50.1,37,50.3,37
		C50.7,37,51.1,37,51.5,37z"/>
	<path class="st1" d="M98.1,40.4c0-0.3,0.1-0.6,0.1-0.9c0-0.3,0.1-0.6,0.1-0.9c0-0.1,0-0.2-0.1-0.2c-0.1-0.1-0.2-0.3-0.3-0.4
		c-0.3-0.2-0.5-0.5-0.7-0.8c-0.1-0.1-0.1-0.2-0.2-0.2c0,0-0.1-0.1-0.1-0.1c-0.1-0.1,0-0.2,0.1-0.2c0.4-0.1,0.8-0.2,1.2-0.3
		c0.2,0,0.4-0.1,0.6-0.1c0.1,0,0.2-0.1,0.3-0.3c0.3-0.5,0.6-1,0.9-1.5c0.1-0.2,0.2-0.2,0.3,0c0.3,0.5,0.5,1,0.8,1.5
		c0.1,0.2,0.2,0.3,0.5,0.4c0.5,0.1,1.1,0.2,1.6,0.3c0,0,0,0,0.1,0c0.2,0.1,0.3,0.1,0.1,0.3c-0.4,0.4-0.8,0.9-1.2,1.3
		c-0.1,0.1-0.2,0.3-0.1,0.5c0.1,0.6,0.2,1.1,0.2,1.7c0,0.2-0.1,0.3-0.3,0.2c-0.4-0.2-0.9-0.4-1.3-0.6c-0.1,0-0.2-0.1-0.3-0.1
		c-0.2-0.1-0.3-0.1-0.5,0c-0.4,0.2-0.8,0.4-1.3,0.6c-0.1,0.1-0.2,0.1-0.3,0.1C98.1,40.6,98.1,40.5,98.1,40.4z"/>
	<path class="st1" d="M82.1,40.4c0.1-0.4,0.1-0.9,0.2-1.3c0-0.2,0-0.4,0.1-0.5c0-0.1,0-0.2,0-0.2c-0.1-0.2-0.2-0.3-0.4-0.5
		c-0.2-0.2-0.5-0.4-0.7-0.7c-0.1-0.1-0.2-0.2-0.3-0.3c0,0-0.1-0.1-0.1-0.1c0-0.1,0-0.1,0.1-0.2c0.4-0.1,0.8-0.2,1.2-0.2
		c0.2,0,0.4-0.1,0.7-0.1c0.2,0,0.3-0.2,0.4-0.3c0.3-0.5,0.5-1,0.8-1.5c0,0,0,0,0-0.1c0.1-0.1,0.2-0.1,0.3,0c0.1,0.3,0.3,0.5,0.4,0.8
		c0.1,0.3,0.3,0.5,0.4,0.8c0.1,0.2,0.2,0.3,0.4,0.3c0.6,0.1,1.1,0.2,1.7,0.3c0,0,0.1,0,0.1,0c0.1,0,0.2,0.1,0.1,0.2
		c-0.1,0.1-0.3,0.3-0.4,0.4c-0.3,0.3-0.6,0.6-0.9,0.9c-0.1,0.1-0.1,0.2-0.1,0.4c0.1,0.6,0.1,1.1,0.2,1.7c0,0,0,0.1,0,0.1
		c0,0.2-0.1,0.2-0.2,0.1c-0.2-0.1-0.4-0.2-0.6-0.3c-0.4-0.2-0.7-0.3-1.1-0.5c-0.2-0.1-0.3,0-0.4,0c-0.5,0.2-0.9,0.5-1.4,0.7
		c0,0-0.1,0.1-0.1,0.1C82.2,40.6,82.1,40.5,82.1,40.4z"/>
	<path class="st1" d="M106,40.4c0.1-0.3,0-0.6,0.1-1c0.1-0.3,0.1-0.6,0.1-0.9c0-0.1,0-0.2-0.1-0.2c-0.2-0.3-0.5-0.5-0.7-0.8
		c-0.2-0.2-0.4-0.4-0.6-0.6c0,0-0.1-0.1-0.1-0.1c-0.1-0.1,0-0.2,0.1-0.2c0.3-0.1,0.6-0.1,1-0.2c0.3-0.1,0.6-0.1,0.9-0.2
		c0.2,0,0.2-0.2,0.3-0.3c0.3-0.5,0.6-1,0.9-1.6c0.1-0.2,0.2-0.2,0.3,0c0.3,0.5,0.5,1,0.8,1.4c0,0.1,0.1,0.2,0.1,0.2
		c0.1,0.1,0.1,0.1,0.3,0.2c0.6,0.1,1.2,0.2,1.7,0.3c0.1,0,0.2,0,0.2,0.1c0.1,0.1-0.1,0.2-0.1,0.2c-0.3,0.4-0.7,0.7-1,1.1
		c-0.2,0.2-0.3,0.4-0.3,0.8c0.1,0.5,0.1,1,0.2,1.6c0,0.1,0,0.1,0,0.2c0,0.2-0.1,0.2-0.2,0.1c-0.4-0.2-0.8-0.4-1.2-0.6
		c-0.2-0.1-0.4-0.1-0.5-0.2c-0.1-0.1-0.2,0-0.3,0c-0.2,0.1-0.4,0.2-0.6,0.3c-0.4,0.2-0.8,0.4-1.1,0.5C106.1,40.6,106,40.5,106,40.4z
		"/>
	<path class="st1" d="M78.2,40.6c-0.1,0-0.1-0.1-0.2-0.1c-0.6-0.3-1.1-0.5-1.7-0.8c-0.1-0.1-0.2,0-0.3,0c-0.4,0.2-0.7,0.3-1.1,0.5
		c-0.2,0.1-0.4,0.2-0.6,0.3c-0.1,0-0.2,0-0.2,0c-0.1-0.1,0-0.1,0-0.2c0-0.2,0.1-0.3,0.1-0.5c0-0.4,0.1-0.9,0.1-1.3
		c0-0.2,0-0.3-0.1-0.4c-0.2-0.3-0.5-0.6-0.8-0.8c-0.2-0.2-0.4-0.4-0.6-0.6c-0.1-0.1,0-0.1,0.1-0.1c0.3-0.1,0.7-0.1,1-0.2
		c0.3-0.1,0.6-0.1,0.9-0.2c0.1,0,0.2-0.1,0.3-0.2c0.2-0.4,0.5-0.8,0.7-1.3c0.1-0.1,0.2-0.3,0.2-0.4c0-0.1,0.2-0.1,0.3,0
		c0.1,0.3,0.3,0.5,0.4,0.8c0.2,0.3,0.3,0.6,0.5,0.9c0.1,0.2,0.2,0.2,0.4,0.3c0.6,0.1,1.2,0.2,1.8,0.4c0.2,0,0.2,0.1,0.1,0.2
		c-0.1,0.1-0.1,0.1-0.2,0.2c-0.3,0.3-0.6,0.7-1,1c-0.1,0.1-0.1,0.1-0.2,0.2c-0.1,0.1-0.1,0.2-0.1,0.3c0.1,0.5,0.1,1,0.2,1.5
		c0,0.1,0.1,0.3,0.1,0.4C78.3,40.5,78.3,40.6,78.2,40.6z"/>
	<path class="st1" d="M90.1,40.4c0.1-0.5,0.1-1,0.2-1.5c0-0.1,0-0.2,0-0.3c0.1-0.2,0-0.4-0.2-0.5c-0.2-0.2-0.3-0.3-0.5-0.5
		c-0.1-0.1-0.3-0.3-0.4-0.4c-0.1-0.1-0.2-0.3-0.3-0.4c-0.1-0.1-0.1-0.2,0.1-0.2c0.3-0.1,0.6-0.1,0.9-0.2c0.3-0.1,0.6-0.1,0.9-0.2
		c0.1,0,0.2-0.1,0.3-0.2c0.2-0.4,0.4-0.8,0.7-1.2c0.1-0.2,0.2-0.3,0.3-0.5c0-0.1,0.2-0.1,0.2,0c0.3,0.5,0.5,0.9,0.8,1.4
		c0,0.1,0.1,0.2,0.1,0.2c0.1,0.2,0.2,0.2,0.4,0.2c0.6,0.1,1.2,0.2,1.8,0.4c0.1,0,0.2,0.1,0.1,0.2c-0.1,0.1-0.2,0.2-0.3,0.3
		c-0.3,0.3-0.7,0.7-1,1c-0.1,0.1-0.2,0.3-0.1,0.5c0.1,0.6,0.2,1.2,0.2,1.8c0,0,0,0.1,0,0.1c0,0.1-0.1,0.1-0.2,0.1
		c-0.4-0.2-0.8-0.3-1.1-0.5c-0.2-0.1-0.5-0.2-0.7-0.3c-0.1,0-0.2,0-0.3,0c-0.4,0.1-0.7,0.3-1,0.5c-0.2,0.1-0.5,0.2-0.7,0.3
		C90.2,40.6,90.1,40.5,90.1,40.4z"/>
	<path class="st4" d="M67.5,40.8c-0.6,0-1.3-0.1-1.9-0.3c-0.3-0.1-0.5-0.3-0.7-0.4c-0.1-0.1-0.1-0.2,0-0.3c0.2-0.3,0.4-0.6,0.5-0.9
		c0.1-0.1,0.1,0,0.2,0c0.1,0.1,0.3,0.2,0.4,0.3c0.5,0.3,1.1,0.5,1.8,0.5c0.3,0,0.6-0.2,0.8-0.5c0.1-0.1,0.1-0.2,0-0.3
		c-0.1-0.2-0.4-0.3-0.6-0.4c-0.6-0.2-1.3-0.2-1.9-0.5c-0.4-0.2-0.8-0.5-0.9-0.9C65,36.8,65,36.6,65,36.3c0-0.4,0.1-0.8,0.3-1.1
		c0.2-0.3,0.5-0.5,0.9-0.6c0.6-0.2,1.3-0.3,2-0.1c0.6,0.1,1.1,0.3,1.5,0.6c0.1,0.1,0.1,0.1,0.1,0.2c-0.2,0.3-0.3,0.5-0.5,0.8
		c-0.1,0.1-0.1,0.2-0.2,0.1c-0.4-0.3-0.8-0.5-1.3-0.5c-0.3-0.1-0.7-0.1-1,0.1c0,0-0.1,0-0.1,0c-0.2,0.1-0.3,0.2-0.3,0.5
		c0,0.2,0.2,0.3,0.3,0.4c0.2,0.1,0.5,0.1,0.7,0.2c0.5,0.1,1.1,0.2,1.5,0.4c0.5,0.2,0.8,0.6,1,1.1c0.3,1-0.3,1.9-1.1,2.2
		C68.4,40.7,68,40.8,67.5,40.8z"/>
	<path class="st4" d="M45,34.6c-0.2,0.5-0.4,0.9-0.5,1.3c-0.3,0.8-0.7,1.6-1,2.4c-0.3,0.7-0.5,1.4-0.8,2c-0.1,0.2-0.1,0.2-0.3,0.2
		c-0.4,0-0.9,0-1.3,0c-0.1,0-0.2,0-0.2-0.1c-0.2-0.3-0.3-0.6-0.4-1c-0.1-0.3-0.2-0.6-0.4-0.9c-0.1-0.3-0.2-0.5-0.3-0.8
		c-0.2-0.4-0.3-0.8-0.5-1.2c-0.1-0.4-0.3-0.7-0.4-1.1c-0.1-0.2-0.2-0.5-0.3-0.7c-0.1-0.1,0-0.2,0.1-0.2c0.4,0,0.9,0,1.3,0
		c0.2,0,0.2,0.1,0.3,0.2c0.2,0.4,0.3,0.9,0.5,1.3c0.3,0.7,0.5,1.3,0.8,2c0.1,0.1,0.1,0.3,0.2,0.4c0,0,0.1,0.1,0.1,0.1
		c0,0,0-0.1,0-0.1c0.2-0.6,0.5-1.2,0.7-1.9c0.2-0.6,0.5-1.2,0.7-1.9c0-0.1,0.1-0.2,0.2-0.2C43.9,34.6,44.4,34.6,45,34.6z"/>
	<path class="st4" d="M45.7,37.6c0-0.9,0-1.8,0-2.7c0-0.1,0-0.1,0-0.2c0-0.1,0-0.1,0.1-0.1c0.4,0,0.9,0,1.3,0c0.1,0,0.1,0,0.1,0.1
		c0,0.1,0,0.1,0,0.2c0,1.8,0,3.5,0,5.3c0,0.1,0,0.1,0,0.2c0,0.1-0.1,0.2-0.2,0.2c-0.4,0-0.8,0-1.3,0c-0.1,0-0.1,0-0.1-0.1
		c0-0.1,0-0.1,0-0.2C45.7,39.4,45.7,38.5,45.7,37.6z"/>
	<path class="st4" d="M45.5,33c0-0.5,0.4-1,0.8-1c0.5,0,1,0.4,1,0.9c0,0.5-0.5,1-0.9,1C45.9,33.9,45.5,33.5,45.5,33z"/>
</g>
</svg>
