<?xml version="1.0" encoding="utf-8"?>
<!-- Generator: Adobe Illustrator 27.9.0, SVG Export Plug-In . SVG Version: 6.00 Build 0)  -->
<svg version="1.1" id="Layer_1" xmlns="http://www.w3.org/2000/svg" xmlns:xlink="http://www.w3.org/1999/xlink" x="0px" y="0px"
	 viewBox="0 0 800 800" style="enable-background:new 0 0 800 800;" xml:space="preserve">
<style type="text/css">
	.st0{fill:#2AD745;}
	.st1{fill:#FEFEFE;}
	.st2{fill:#26303F;}
	.st3{fill:#FE9901;}
</style>
<g>
	<path class="st0" d="M-1144.5-435c221.2,0,400,178.9,399.9,400.2C-744.7,186.4-923.7,365.2-1145,365
		c-221.2-0.2-399.9-179.3-399.6-400.5C-1544.3-256.7-1365.6-435.1-1144.5-435z M-910.5-27.6c-0.3-43.9-8.2-78.7-24.8-111.4
		c-60.2-118-205.2-163.6-321.4-99.7c-71.3,39.2-111.8,100.6-120.8,181.6c-5.4,48.6,5.2,94.4,29.5,137c1.7,3,2.8,5.7,2.1,9.5
		c-5.4,29.1-10.6,58.2-15.7,87.3c-1.7,9.9-2.7,8.7,6.9,7.2c30.9-4.9,61.7-9.9,92.6-14.9c2.9-0.5,5.5-0.1,8.2,1.3
		c49.1,25.4,100.9,32.7,155.2,22.5C-990.5,172.3-910.5,75.5-910.5-27.6z"/>
	<path class="st1" d="M-910.5-27.6c0,103.2-80.1,199.9-188.2,220.3c-54.4,10.3-106.1,3-155.2-22.5c-2.7-1.4-5.3-1.7-8.2-1.3
		c-30.9,5-61.7,10-92.6,14.9c-9.6,1.5-8.6,2.7-6.9-7.2c5.1-29.1,10.3-58.2,15.7-87.3c0.7-3.8-0.4-6.5-2.1-9.5
		c-24.3-42.5-34.9-88.4-29.5-137c9-81,49.5-142.5,120.8-181.6c116.2-63.8,261.2-18.3,321.4,99.7C-918.6-106.3-910.8-71.5-910.5-27.6
		z M-947.8-36.5c-0.3-15.9-2.5-33.4-7.3-50.6c-27.2-98.1-125.9-159.1-227.1-139.4c-138,26.9-204.9,184.4-124.5,301.7
		c2.1,3,2.7,5.8,1.9,9.4c-3.7,16.7-7,33.5-10.5,50.3c-0.9,4.2,0.4,4.8,4.3,4c18.1-3.6,36.3-6.9,54.4-10.5c2.9-0.6,5,0,7.4,1.5
		c44.1,27.3,91.8,35.9,142.7,26.4C-1015.6,139.5-947.9,58-947.8-36.5z"/>
	<path class="st0" d="M-947.8-36.5c-0.1,94.5-67.9,176-158.9,192.9c-50.9,9.4-98.6,0.8-142.7-26.4c-2.4-1.5-4.5-2-7.4-1.5
		c-18.1,3.6-36.3,6.9-54.4,10.5c-3.8,0.8-5.2,0.1-4.3-4c3.6-16.8,6.9-33.6,10.5-50.3c0.8-3.7,0.2-6.4-1.9-9.4
		c-80.4-117.3-13.5-274.8,124.5-301.7c101.2-19.7,200,41.3,227.1,139.4C-950.3-69.9-948.1-52.3-947.8-36.5z M-1255.5-88.5
		c-0.2,3.6,0.7,8.6,1.7,13.6c3.3,16.4,11.5,30.5,19.9,44.6c29.6,49.6,70.1,85.7,125.9,103.4c10.9,3.5,21.7,6.1,33.2,3.7
		c23.8-4.8,42.3-16.3,45.5-43c0.7-6-0.2-10.5-6.3-13.5c-7.1-3.4-13.8-7.7-20.8-11.5c-7.3-4-14.5-8.1-21.9-11.8
		c-6.6-3.2-9-2.5-13.8,2.9c-3.9,4.4-7.7,8.8-11.8,13c-11.8,12.2-10.1,12.8-26.5,4.4c-29.4-15.1-50.6-38.1-66.1-66.9
		c-2.7-5.1-2-9,2.3-13c5.5-5.1,10.9-10.3,14.7-17c2.2-3.9,2.5-7.6,0.9-11.8c-4.5-12.4-9.2-24.7-13-37.3c-3.1-10.5-7.7-18-20.1-16.4
		c-0.5,0.1-1.1-0.2-1.7-0.3c-6.9-1.3-13.1,0.5-18.4,5C-1247.2-127.2-1255.3-110.4-1255.5-88.5z"/>
	<path class="st1" d="M-1255.5-88.5c0.3-22,8.4-38.7,23.9-51.9c5.3-4.5,11.5-6.3,18.4-5c0.6,0.1,1.1,0.4,1.7,0.3
		c12.5-1.6,17,5.9,20.1,16.4c3.7,12.6,8.5,24.9,13,37.3c1.5,4.2,1.3,7.9-0.9,11.8c-3.8,6.7-9.2,11.9-14.7,17c-4.3,4-5.1,8-2.3,13
		c15.5,28.8,36.7,51.8,66.1,66.9c16.4,8.4,14.7,7.9,26.5-4.4c4-4.2,7.9-8.6,11.8-13c4.7-5.4,7.2-6.2,13.8-2.9
		c7.4,3.7,14.6,7.8,21.9,11.8c6.9,3.8,13.7,8.1,20.8,11.5c6.1,2.9,7,7.5,6.3,13.5c-3.2,26.7-21.7,38.2-45.5,43
		c-11.5,2.3-22.2-0.3-33.2-3.7c-55.8-17.7-96.3-53.8-125.9-103.4c-8.4-14.1-16.6-28.3-19.9-44.6
		C-1254.8-79.9-1255.7-84.9-1255.5-88.5z"/>
</g>
<g>
	<path class="st2" d="M477.9,358.7c7.6-29.3,15.1-58.5,22.6-87.6c7.2-27.8,14.4-55.6,21.6-83.4c0.1-0.2,0.1-0.4,0.1-0.6
		c3-11,5.9-13.2,17.4-13.2c7.2,0,14.5-0.1,21.7,0c5.3,0.1,7.1,2.1,6.9,7.3c-0.1,2.5-0.7,5-1.5,7.4c-21,67.3-42,134.6-63,201.9
		c-3.7,11.7-6.2,13.5-18.6,13.5c-6.7,0-13.4,0-20,0c-8.7-0.1-12-2.6-14.1-11.2c-3.1-12.3-6-24.6-8.9-36.9
		c-10.3-42.9-20.6-85.8-30.9-128.7c-0.2-0.7-0.2-1.5-1.1-2.1c-4.2,17.8-8.5,35.4-12.7,53.1c-9,37.4-17.9,74.8-26.9,112.1
		c-2.8,11.5-5.5,13.5-17.2,13.5c-6.9,0-13.8,0.1-20.7,0c-8.3-0.2-11.5-2.2-14-10.2c-6-18.7-11.6-37.5-17.3-56.3
		c-15.1-49.7-30.2-99.4-45.3-149.1c-0.7-2.3-1.3-4.6-1.6-7c-0.6-4.5,1.7-7.2,6.3-7.2c9.4-0.1,18.8,0,28.3,0.1c5,0,8.5,2.4,10.4,7.1
		c3.5,8.8,5.2,18,7.5,27.1c12.6,49.1,25,98.2,37.5,147.3c0.1,0.4,0.2,0.7,0.3,1.1c1.1-0.4,0.9-1.3,1.1-2
		c13.1-55.6,26.2-111.2,39.4-166.8c2.8-11.8,5.5-14,17.5-14c6.8,0,13.6-0.1,20.4,0.1c8.1,0.2,11.4,2.8,13.4,10.8
		c2.7,11.1,5.3,22.3,7.9,33.5c10.9,46.2,21.8,92.5,32.8,138.7C477,357.4,476.8,358.2,477.9,358.7z"/>
	<path class="st3" d="M404.9,633.1c-74.4-0.2-140.2-11.3-203.8-34.4c-67.8-24.6-128.8-60.7-182.9-108.5c-1.7-1.5-3.5-3-5.1-4.6
		c-3.1-3.1-3.8-7-1.9-9.8c2-2.9,6-3.7,10-1.6c8.3,4.4,16.4,9.1,24.7,13.5c57.9,30.7,118.8,53.1,182.5,68.3
		c33.4,8,67.3,13.7,101.5,17.1c36.6,3.7,73.4,5.1,110.2,3.3c90.3-4.5,177.2-23.9,260.7-58.7c4-1.7,8-3.1,12.4-1.7
		c7.9,2.5,10.6,10.7,5.5,17.2c-1.6,2.1-3.8,3.6-5.9,5.1c-32,23.1-66.9,41-103.6,55.2c-39.3,15.2-79.8,25.8-121.4,32.3
		C458,630.6,428.2,633.1,404.9,633.1z"/>
	<path class="st2" d="M189.6,373.9c-7.2,8.2-14.7,15.5-23.8,20.9c-27.4,16.4-56.3,20.2-86.1,8.1c-21.5-8.7-33.1-26.2-36.4-48.9
		c-2.4-16.1-1.1-31.9,6.8-46.6c10.5-19.5,27.5-30.7,48.4-36.2c17.2-4.6,34.7-4.3,52.2-2.4c11.3,1.2,22.5,3.4,33.6,5.9
		c1.1,0.2,2.5,1.1,2.5-1.1c-0.1-12.7,0.9-25.4-2-37.9c-4.4-19.7-15-28.7-35.5-31.6c-24.6-3.5-47.8,1.6-70.6,10.2
		c-4.3,1.6-8.4,3.6-12.9,4.6c-5,1.2-7.8-0.7-8-5.8c-0.2-5.9-0.1-11.8,0-17.7c0.1-5.1,3.1-8.2,7.3-10.4c9.4-5.1,19.4-8.5,29.6-11.4
		c25.6-7.1,51.6-8.4,77.6-2.9c17.3,3.6,32.4,11.3,42.8,26.3c8.3,11.9,11.9,25.4,13.5,39.6c0.7,6.5,0.8,13.1,0.8,19.7
		c0,24.4-0.1,48.8,0,73.2c0,7.8,0.6,15.7,1.9,23.4c1.5,8.7,5.5,16.5,9.5,24.3c3.5,6.9,2.6,10.7-3.7,15c-5,3.4-10,6.7-15,10
		c-6.2,4-10.9,3.3-16-2.2c-5.4-5.8-9.4-12.6-13-19.6C191.9,378.5,190.8,376.3,189.6,373.9z M137.4,298.5c-4.3,0-12.3,0.3-20.1,2.3
		c-14.5,3.7-24.9,11.9-28.5,27.1c-1.3,5.4-1.3,10.9-0.8,16.3c1.2,16.6,11.2,28.2,26.9,30.6c16.8,2.5,32.8-0.4,47.4-9.1
		c12-7.1,20.6-17.1,23.3-31.4c1.8-9.4,1.7-18.9,1.8-28.4c0-1.8-1.1-1.8-2.3-2.1C170.5,300.5,155.9,298.6,137.4,298.5z"/>
	<path class="st2" d="M674.2,166.9c18.4,0.4,35.5,3.2,52,9.1c1.9,0.7,3.7,1.4,5.5,2.2c9,3.9,14.3,10.2,13.1,20.7
		c-0.4,3.6,0.2,7.2-0.4,10.8c-0.8,4.4-3.3,6.2-7.7,5.3c-6-1.3-11.3-4.6-17.1-6.5c-20.4-6.6-41.1-8.3-62.1-4.2c-3.1,0.6-6.1,1.7-9,3
		c-9.1,4.1-14.7,10.8-15.8,20.9c-1.2,10.8,2.3,19.6,11.5,25.8c7.9,5.3,16.7,8.5,25.6,11.5c16,5.3,32.3,9.4,47.9,15.9
		c18.6,7.7,32.5,20.1,37.9,40.2c8.1,30.2-5.8,61.1-34.3,76.4c-15.3,8.2-31.8,12-49.1,12.7c-23.5,0.9-46.2-3-68.1-11.2
		c-3.6-1.3-6.9-3.2-10.2-5.2c-4.7-2.9-6.9-7.2-7-12.6c-0.1-4.6-0.1-9.2,0-13.8c0.2-6.7,3.4-9.2,9.9-7.1c5.4,1.7,10.5,4.2,15.9,6.1
		c21.8,7.7,44.2,10.6,67.2,7.6c8.6-1.1,16.8-3.8,23.9-9.1c14.4-10.7,15.8-35.7-2.4-46c-5.2-2.9-10.5-5.4-16.1-7.2
		c-15.8-5.1-31.7-9.8-47.4-15.2c-16.9-5.8-31-15.4-40.1-31.4c-15.2-26.7-8.9-59.4,15.1-78.5c14.9-11.9,32-17.6,50.7-19.3
		C667.3,167.2,671.2,167.1,674.2,166.9z"/>
	<path class="st3" d="M708,488c-19.7,0.6-38.1,2.6-56.5,4.8c-1.4,0.2-2.8,0.3-4.2-0.1c-3-0.9-4.2-3.1-3-6.1c1-2.7,3.1-4.4,5.4-6
		c15.7-10.7,33.3-16.8,51.9-20.1c21.7-3.8,43.5-4.2,65.3-0.2c4.2,0.8,8.3,2,12.4,3.3c7.2,2.2,10.2,7.1,10.5,14.4
		c0.7,15.2-1.9,29.9-6,44.3c-6.7,23.6-16.9,45.4-33,64.2c-3.5,4.1-7.3,7.9-11.4,11.3c-0.5,0.4-1,0.9-1.5,1.2
		c-3.4,2.5-6.8,3.2-8.8,1.5c-3-2.6-1.5-5.6-0.4-8.4c8.4-21,16.7-42,22-64.1c2-8.5,3.9-17.1,2.4-25.9c-0.8-4.8-3.4-7.9-7.7-9.8
		c-5.2-2.3-10.7-3.2-16.2-3.7C721.6,487.9,714.2,487.7,708,488z"/>
</g>
</svg>
