<?xml version="1.0" encoding="utf-8"?>
<!-- Generator: Adobe Illustrator 27.9.0, SVG Export Plug-In . SVG Version: 6.00 Build 0)  -->
<svg version="1.1" id="Layer_1" xmlns="http://www.w3.org/2000/svg" xmlns:xlink="http://www.w3.org/1999/xlink" x="0px" y="0px"
	 viewBox="0 0 31 31" style="enable-background:new 0 0 31 31;" xml:space="preserve">
<style type="text/css">
	.st0{fill:none;stroke:#FFFFFF;stroke-miterlimit:10;}
	.st1{fill:none;stroke:#FFFFFF;stroke-linecap:round;stroke-miterlimit:10;}
</style>
<g id="Layer_4" transform="translate(-2 -1.973)">
	<path id="Path_4" class="st0" d="M28.5,24.5h-1.2l0,0c-1.5-2.3-4.5-3-6.9-1.5c-1.4,0.9-2.3,2.5-2.3,4.2v0.1h-0.1
		c-1.4,0-2.6,1.2-2.6,2.6l0,0l0,0c0,1.4,1.2,2.6,2.6,2.6l0,0h10.5c2.2,0,4-1.8,4-4l0,0C32.5,26.3,30.7,24.5,28.5,24.5L28.5,24.5z"/>
	<path id="Rectangle_1" class="st0" d="M6.4,8.9h22c2.2,0,3.9,1.8,3.9,3.9l0,0c0,2.2-1.8,3.9-3.9,3.9h-22c-2.2,0-3.9-1.8-3.9-3.9
		l0,0C2.5,10.7,4.3,8.9,6.4,8.9z"/>
	<path id="Path_5" class="st0" d="M29.7,16.6c1.5,0,2.7,1.2,2.6,2.7v2.6c0,1.5-1.2,2.7-2.6,2.7"/>
	<path id="Path_6" class="st0" d="M5.2,24.6c-1.5,0-2.7-1.2-2.6-2.7v-2.6c0-1.5,1.2-2.7,2.6-2.7"/>
	<path id="Path_7" class="st0" d="M18.9,24.6H5.2c-1.5,0-2.6,1.2-2.6,2.6l0,0v2.6c0,1.5,1.2,2.6,2.6,2.6l0,0h13.7"/>
	<circle id="Ellipse_1" class="st0" cx="6.5" cy="12.9" r="1.4"/>
	<circle id="Ellipse_2" class="st0" cx="6.5" cy="20.7" r="1.4"/>
	<circle id="Ellipse_3" class="st0" cx="6.5" cy="28.5" r="1.4"/>
	<line id="Line_1" class="st1" x1="18" y1="11.6" x2="28.5" y2="11.6"/>
	<line id="Line_2" class="st1" x1="18" y1="14.2" x2="28.5" y2="14.2"/>
	<line id="Line_3" class="st1" x1="18" y1="19.3" x2="28.5" y2="19.3"/>
	<path id="Path_8" class="st1" d="M4.4,9.5l3.8-6.1c0.4-0.6,1-1,1.7-1h15.3c0.7,0,1.3,0.4,1.7,1l3.8,6.2"/>
</g>
</svg>
