<?xml version="1.0" encoding="utf-8"?>
<!-- Generator: Adobe Illustrator 27.9.0, SVG Export Plug-In . SVG Version: 6.00 Build 0)  -->
<svg version="1.1" id="Layer_1" xmlns="http://www.w3.org/2000/svg" xmlns:xlink="http://www.w3.org/1999/xlink" x="0px" y="0px"
	 viewBox="0 0 31 23" style="enable-background:new 0 0 31 23;" xml:space="preserve">
<style type="text/css">
	.st0{fill:none;stroke:#FFFFFF;stroke-miterlimit:10;}
	.st1{fill:none;stroke:#FFFFFF;stroke-linejoin:round;}
	.st2{fill:none;stroke:#FFFFFF;stroke-linecap:round;stroke-linejoin:round;}
</style>
<g id="Layer_3" transform="translate(-2 -2)">
	<circle id="Ellipse_4" class="st0" cx="17.5" cy="14.3" r="2.7"/>
	<path id="Path_9" class="st1" d="M2.5,20.2h30v1.4c0,1.6-1.3,2.9-2.9,2.9H5.4c-1.6,0-2.9-1.3-2.9-2.9V20.2z"/>
	<path id="Path_10" class="st1" d="M4,20.2V3.6C4,3,4.5,2.5,5.1,2.5h24.7C30.5,2.5,31,3,31,3.6v16.6"/>
	<line id="Line_4" class="st2" x1="14.6" y1="22.4" x2="20.4" y2="22.4"/>
	<path id="Path_11" class="st1" d="M24,20.2l0.8-0.8c0.2-0.2,0.2-0.5,0-0.7c0,0,0,0,0,0l-0.6-0.6c-0.4-0.3-0.5-0.9-0.3-1.3
		c0.2-0.5,0.7-0.8,1.2-0.7H26c0.3,0,0.5-0.2,0.6-0.5V13c0-0.3-0.3-0.5-0.6-0.5h-0.9c-0.5,0-1-0.3-1.2-0.7c-0.2-0.5-0.1-1,0.3-1.3
		l0.6-0.6c0.2-0.2,0.2-0.5,0-0.7c0,0,0,0,0,0L23,7.3c-0.2-0.2-0.6-0.2-0.8,0l-0.6,0.6c-0.4,0.3-0.9,0.5-1.4,0.3
		c-0.5-0.2-0.8-0.6-0.8-1.1V6.2c0-0.1-0.1-0.3-0.2-0.4c-0.1-0.1-0.2-0.2-0.4-0.2h-2.6c-0.1,0-0.3,0.1-0.4,0.2
		c-0.1,0.1-0.2,0.2-0.2,0.4v0.9c0,0.5-0.3,1-0.8,1.1c-0.5,0.2-1,0.1-1.4-0.3l-0.6-0.6c-0.2-0.2-0.6-0.2-0.8,0l-1.8,1.7
		c-0.2,0.2-0.2,0.5,0,0.7c0,0,0,0,0,0l0.6,0.6c0.4,0.3,0.5,0.9,0.3,1.3c-0.2,0.5-0.7,0.8-1.2,0.7H9c-0.3,0-0.5,0.2-0.6,0.5v2.5
		C8.5,15.8,8.8,16,9,16h0.9c0.5,0,1,0.3,1.2,0.7c0.2,0.5,0.1,1-0.3,1.3l-0.6,0.6c-0.2,0.2-0.2,0.5,0,0.7c0,0,0,0,0,0l0.8,0.8"/>
</g>
</svg>
