<?xml version="1.0" encoding="utf-8"?>
<!-- Generator: Adobe Illustrator 27.9.0, SVG Export Plug-In . SVG Version: 6.00 Build 0)  -->
<svg version="1.1" id="Layer_1" xmlns="http://www.w3.org/2000/svg" xmlns:xlink="http://www.w3.org/1999/xlink" x="0px" y="0px"
	 viewBox="0 0 36 36" style="enable-background:new 0 0 36 36;" xml:space="preserve">
<style type="text/css">
	.st0{fill:none;}
	.st1{fill:#FFFFFF;}
</style>
<rect class="st0" width="36" height="36"/>
<g id="cloud-server">
	<g id="cloud" transform="translate(0 -55.591)">
		<path id="Path_2420" class="st1" d="M36,71.5c-0.3-2.5-2.1-4.6-4.5-5.2c0.6-3.2-1.5-6.3-4.7-6.9c-1.2-0.2-2.4-0.1-3.5,0.4
			c-3-4.4-9-5.5-13.4-2.4c-2.8,2-4.4,5.3-4.1,8.8c-1.5,0.1-2.9,0.7-4,1.7C0.6,68.9,0,70.5,0,72.1c0,1.4,0.5,2.7,1.4,3.8
			c0.9,1.3,2.3,2.1,3.9,2.2c0,0,0,0,1.7,0c0.2,0,0.5-0.2,0.5-0.4c0.1-0.3-0.1-0.6-0.4-0.7C7,77,7,77,6.9,77H5.3
			c-1.2-0.1-2.4-0.8-3.1-1.8c-0.7-0.9-1.1-2-1.1-3.1c0-1.3,0.5-2.6,1.4-3.5c1-1,2.4-1.5,3.8-1.4h0.1c0.3,0,0.5-0.2,0.5-0.5
			c0,0,0-0.1,0-0.1l0-0.1c-0.7-4.6,2.4-9,7.1-9.7c3.4-0.5,6.8,1,8.5,3.9l0,0c0.1,0.2,0.4,0.3,0.7,0.2l0,0c1.1-0.6,2.5-0.8,3.7-0.4
			c1.2,0.4,2.2,1.2,2.8,2.3c0.6,1.1,0.7,2.5,0.4,3.7l0,0c-0.1,0.3,0.1,0.5,0.3,0.6c0,0,0,0,0.1,0c0.9,0.1,1.7,0.5,2.4,1
			c2.1,1.7,2.5,4.8,0.8,6.9c0,0,0,0,0,0.1c-0.7,1-1.8,1.7-3,1.8h-1.8c-0.3,0-0.6,0.3-0.6,0.6c0,0.1,0,0.1,0,0.2
			c0.1,0.2,0.3,0.4,0.5,0.4h1.8c1.6-0.1,3-0.9,3.9-2.2C35.7,74.7,36.1,73.1,36,71.5z"/>
		<path id="Path_2421" class="st1" d="M26.6,71.5H9.4c-0.5,0-0.9,0.4-0.9,0.9v3.6c0,0.5,0.4,0.9,0.9,0.9h17.1c0.5,0,0.9-0.4,0.9-0.9
			v-3.6C27.5,72,27.1,71.5,26.6,71.5z M26.3,75.8H9.7v-3.2h16.6L26.3,75.8z"/>
		<path id="Path_2422" class="st1" d="M11.5,74.8h7c0.3,0,0.6-0.2,0.6-0.5c0-0.3-0.2-0.6-0.5-0.6c0,0,0,0,0,0h-7
			c-0.3,0-0.6,0.2-0.6,0.5C10.9,74.5,11.1,74.8,11.5,74.8C11.4,74.8,11.4,74.8,11.5,74.8z"/>
		<path id="Path_2423" class="st1" d="M21.3,74.8h0.3c0.3,0,0.6-0.2,0.6-0.5c0-0.3-0.2-0.6-0.5-0.6c0,0,0,0,0,0h-0.3
			c-0.3,0-0.6,0.2-0.6,0.5C20.7,74.5,20.9,74.8,21.3,74.8C21.2,74.8,21.3,74.8,21.3,74.8L21.3,74.8z"/>
		<path id="Path_2424" class="st1" d="M23.4,74.8h0.3c0.3,0,0.6-0.2,0.6-0.5c0-0.3-0.2-0.6-0.5-0.6c0,0,0,0,0,0h-0.3
			c-0.3,0-0.6,0.2-0.6,0.5C22.8,74.5,23,74.8,23.4,74.8C23.4,74.8,23.4,74.8,23.4,74.8z"/>
		<g id="Group_15661" transform="translate(0 -0.459)">
			<path id="Path_2433" class="st1" d="M26.6,65.5H9.4c-0.5,0-0.9,0.4-0.9,0.9v3.6c0,0.5,0.4,0.9,0.9,0.9h17.1
				c0.5,0,0.9-0.4,0.9-0.9v-3.6C27.5,66,27.1,65.5,26.6,65.5z M26.3,69.8H9.7v-3.2h16.6L26.3,69.8z"/>
			<path id="Path_2434" class="st1" d="M11.5,68.8h7c0.3,0,0.6-0.2,0.6-0.5c0-0.3-0.2-0.6-0.5-0.6c0,0,0,0,0,0h-7
				c-0.3,0-0.6,0.2-0.6,0.5C10.9,68.5,11.1,68.8,11.5,68.8C11.4,68.8,11.4,68.8,11.5,68.8z"/>
			<path id="Path_2435" class="st1" d="M21.3,68.8h0.3c0.3,0,0.6-0.2,0.6-0.5c0-0.3-0.2-0.6-0.5-0.6c0,0,0,0,0,0h-0.3
				c-0.3,0-0.6,0.2-0.6,0.5C20.7,68.5,20.9,68.8,21.3,68.8C21.2,68.8,21.3,68.8,21.3,68.8L21.3,68.8z"/>
			<path id="Path_2436" class="st1" d="M23.4,68.8h0.3c0.3,0,0.6-0.2,0.6-0.5c0-0.3-0.2-0.6-0.5-0.6c0,0,0,0,0,0h-0.3
				c-0.3,0-0.6,0.2-0.6,0.5C22.8,68.5,23,68.8,23.4,68.8C23.4,68.8,23.4,68.8,23.4,68.8z"/>
		</g>
		<path id="Path_2425" class="st1" d="M26.6,78H9.4c-0.5,0-0.9,0.4-0.9,0.9v3.6c0,0.5,0.4,0.9,0.9,0.9h17.1c0.5,0,0.9-0.4,0.9-0.9
			v-3.6C27.5,78.4,27.1,78,26.6,78z M26.3,82.2H9.7v-3.2h16.6L26.3,82.2z"/>
		<path id="Path_2426" class="st1" d="M11.5,81.2h7c0.3,0,0.6-0.2,0.6-0.5c0-0.3-0.2-0.6-0.5-0.6c0,0,0,0,0,0h-7
			c-0.3,0-0.6,0.2-0.6,0.5C10.9,80.9,11.1,81.2,11.5,81.2C11.4,81.2,11.4,81.2,11.5,81.2z"/>
		<path id="Path_2427" class="st1" d="M21.3,81.2h0.3c0.3,0,0.6-0.2,0.6-0.5c0-0.3-0.2-0.6-0.5-0.6c0,0,0,0,0,0h-0.3
			c-0.3,0-0.6,0.2-0.6,0.5C20.7,80.9,20.9,81.2,21.3,81.2C21.2,81.2,21.3,81.2,21.3,81.2L21.3,81.2z"/>
		<path id="Path_2428" class="st1" d="M23.4,81.2h0.3c0.3,0,0.6-0.2,0.6-0.5c0-0.3-0.2-0.6-0.5-0.6c0,0,0,0,0,0h-0.3
			c-0.3,0-0.6,0.2-0.6,0.5C22.8,80.9,23,81.2,23.4,81.2C23.4,81.2,23.4,81.2,23.4,81.2L23.4,81.2z"/>
		<path id="Path_2429" class="st1" d="M26.6,84.4H9.4c-0.5,0-0.9,0.4-0.9,0.9v3.6c0,0.5,0.4,0.9,0.9,0.9h17.1c0.5,0,0.9-0.4,0.9-0.9
			v-3.6C27.5,84.8,27.1,84.4,26.6,84.4z M26.3,88.6H9.7v-3.2h16.6L26.3,88.6z"/>
		<path id="Path_2430" class="st1" d="M11.5,87.6h7.1c0.3,0,0.6-0.2,0.6-0.5c0-0.3-0.2-0.6-0.5-0.6c0,0,0,0,0,0h-7.1
			c-0.3,0-0.6,0.2-0.6,0.5C10.9,87.4,11.1,87.6,11.5,87.6C11.4,87.6,11.4,87.6,11.5,87.6z"/>
		<path id="Path_2431" class="st1" d="M21.3,87.6h0.3c0.3,0,0.6-0.2,0.6-0.5c0-0.3-0.2-0.6-0.5-0.6c0,0,0,0,0,0h-0.3
			c-0.3,0-0.6,0.2-0.6,0.5C20.7,87.4,20.9,87.6,21.3,87.6C21.2,87.6,21.2,87.6,21.3,87.6z"/>
		<path id="Path_2432" class="st1" d="M23.4,87.6h0.3c0.3,0,0.6-0.2,0.6-0.5c0-0.3-0.2-0.6-0.5-0.6c0,0,0,0,0,0h-0.3
			c-0.3,0-0.6,0.2-0.6,0.5C22.8,87.4,23,87.6,23.4,87.6C23.3,87.6,23.4,87.6,23.4,87.6z"/>
	</g>
</g>
</svg>
