<?xml version="1.0" encoding="utf-8"?>
<!-- Generator: Adobe Illustrator 27.9.0, SVG Export Plug-In . SVG Version: 6.00 Build 0)  -->
<svg version="1.1" id="Layer_1" xmlns="http://www.w3.org/2000/svg" xmlns:xlink="http://www.w3.org/1999/xlink" x="0px" y="0px"
	 viewBox="0 0 36 36" style="enable-background:new 0 0 36 36;" xml:space="preserve">
<style type="text/css">
	.st0{fill:none;}
	.st1{fill:#FFFFFF;}
</style>
<rect class="st0" width="36" height="36"/>
<g id="tally-cloud">
	<g id="Layer_35" transform="translate(-5 -5.479)">
		<g id="Group_15662" transform="translate(5 5.774)">
			<path id="Path_2437" class="st1" d="M32.9,23.6c-1.1,0-2.1,0.8-2.4,1.9H28v-4.6h0.4c4.2-0.1,7.5-3.4,7.6-7.6
				c0.1-3.4-2.1-6.4-5.4-7.3c-0.3-2.5-2-4.7-4.4-5.6c-2.4-0.9-5.1-0.4-7,1.3c-2-0.8-4.3-0.8-6.3,0c-1.7,0.7-3.1,2-3.8,3.8
				C7.9,5.4,6.7,5.9,5.8,6.7C4.9,7.5,4.3,8.6,4.3,9.8C1.8,10.4,0,12.7,0,15.3c0,3.1,2.5,5.6,5.6,5.6H8v4.5H5.5
				c-0.3-1.3-1.7-2.1-3-1.8s-2.1,1.7-1.8,3c0.3,1.3,1.7,2.1,3,1.8c0.9-0.2,1.6-0.9,1.8-1.8h3.1c0.3,0,0.6-0.3,0.6-0.6v-5.2h3.5v6.2
				l-2.3,2.3C10,29.2,9.6,29,9.1,29c-1.4,0-2.5,1.1-2.5,2.5c0,1.4,1.1,2.5,2.5,2.5s2.5-1.1,2.5-2.5c0,0,0,0,0,0
				c0-0.5-0.1-0.9-0.4-1.3l2.4-2.4c0.1-0.1,0.2-0.3,0.2-0.4v-6.5h3.5v9.6c-1.3,0.3-2.1,1.7-1.8,3s1.7,2.1,3,1.8s2.1-1.7,1.8-3
				c-0.2-0.9-0.9-1.6-1.8-1.8v-9.6h3.5v6.5c0,0.2,0.1,0.3,0.2,0.4l2.4,2.4c-0.2,0.4-0.4,0.8-0.4,1.3c0,1.4,1.1,2.5,2.5,2.5
				c1.4,0,2.5-1.1,2.5-2.5c0-1.4-1.1-2.5-2.5-2.5c0,0,0,0,0,0c-0.5,0-0.9,0.1-1.3,0.4l-2.3-2.3v-6.2h3.6V26c0,0.3,0.3,0.6,0.6,0.6
				h3.1c0.3,1.3,1.7,2.1,3,1.8c1.1-0.3,1.9-1.3,1.9-2.4C35.4,24.6,34.2,23.6,32.9,23.6C32.9,23.6,32.9,23.6,32.9,23.6L32.9,23.6z
				 M3.1,27.3c-0.7,0-1.3-0.6-1.3-1.3c0-0.7,0.6-1.3,1.3-1.3s1.3,0.6,1.3,1.3C4.4,26.7,3.8,27.3,3.1,27.3z M9.2,32.8
				c-0.7,0-1.3-0.6-1.3-1.3c0-0.7,0.6-1.3,1.3-1.3c0.7,0,1.3,0.6,1.3,1.3l0,0C10.4,32.2,9.9,32.8,9.2,32.8z M19.3,32.9
				c0,0.7-0.6,1.3-1.3,1.3c-0.7,0-1.3-0.6-1.3-1.3c0-0.7,0.6-1.3,1.3-1.3h0C18.7,31.7,19.3,32.2,19.3,32.9L19.3,32.9z M28.1,31.5
				c0,0.7-0.6,1.3-1.3,1.3c-0.7,0-1.3-0.6-1.3-1.3c0-0.7,0.6-1.3,1.3-1.3l0,0C27.5,30.2,28.1,30.8,28.1,31.5z M1.2,15.3
				C1.1,13.1,2.8,11.2,5,11c0.3,0,0.6-0.3,0.5-0.6c0,0,0,0,0,0c-0.1-1,0.3-2,1-2.7C7.2,7,8,6.7,8.8,6.7c0.2,0,0.4,0,0.6,0
				c0.3,0.1,0.6-0.1,0.7-0.4c0.5-1.6,1.7-2.9,3.3-3.5C15.2,2,17.2,2.1,19,2.9C19.2,3,19.5,3,19.7,2.8c2.2-2.2,5.9-2.2,8.1,0
				c1,1,1.6,2.3,1.7,3.6c0,0.3,0.2,0.5,0.4,0.5c2.9,0.7,4.9,3.3,4.8,6.3c-0.1,3.5-2.9,6.3-6.4,6.4H5.6C3.2,19.7,1.2,17.7,1.2,15.3z
				 M32.9,27.3c-0.7,0-1.3-0.6-1.3-1.3c0-0.7,0.6-1.3,1.3-1.3c0.7,0,1.3,0.6,1.3,1.3l0,0C34.2,26.7,33.6,27.3,32.9,27.3
				C32.9,27.3,32.9,27.3,32.9,27.3L32.9,27.3z"/>
		</g>
	</g>
</g>
</svg>
