<?xml version="1.0" encoding="utf-8"?>
<!-- Generator: Adobe Illustrator 27.9.0, SVG Export Plug-In . SVG Version: 6.00 Build 0)  -->
<svg version="1.1" id="Layer_1" xmlns="http://www.w3.org/2000/svg" xmlns:xlink="http://www.w3.org/1999/xlink" x="0px" y="0px"
	 viewBox="0 0 800 800" style="enable-background:new 0 0 800 800;" xml:space="preserve">
<style type="text/css">
	.st0{fill:#2AD745;}
	.st1{fill:#FEFEFE;}
	.st2{fill:#2AB218;}
	.st3{fill:#F3F6F3;}
</style>
<g>
	<path class="st0" d="M-1144.5-435c221.2,0,400,178.9,399.9,400.2C-744.7,186.4-923.7,365.2-1145,365
		c-221.2-0.2-399.9-179.3-399.6-400.5C-1544.3-256.7-1365.6-435.1-1144.5-435z M-910.5-27.6c-0.3-43.9-8.2-78.7-24.8-111.4
		c-60.2-118-205.2-163.6-321.4-99.7c-71.3,39.2-111.8,100.6-120.8,181.6c-5.4,48.6,5.2,94.4,29.5,137c1.7,3,2.8,5.7,2.1,9.5
		c-5.4,29.1-10.6,58.2-15.7,87.3c-1.7,9.9-2.7,8.7,6.9,7.2c30.9-4.9,61.7-9.9,92.6-14.9c2.9-0.5,5.5-0.1,8.2,1.3
		c49.1,25.4,100.9,32.7,155.2,22.5C-990.5,172.3-910.5,75.5-910.5-27.6z"/>
	<path class="st1" d="M-910.5-27.6c0,103.2-80.1,199.9-188.2,220.3c-54.4,10.3-106.1,3-155.2-22.5c-2.7-1.4-5.3-1.7-8.2-1.3
		c-30.9,5-61.7,10-92.6,14.9c-9.6,1.5-8.6,2.7-6.9-7.2c5.1-29.1,10.3-58.2,15.7-87.3c0.7-3.8-0.4-6.5-2.1-9.5
		c-24.3-42.5-34.9-88.4-29.5-137c9-81,49.5-142.5,120.8-181.6c116.2-63.8,261.2-18.3,321.4,99.7C-918.6-106.3-910.8-71.5-910.5-27.6
		z M-947.8-36.5c-0.3-15.9-2.5-33.4-7.3-50.6c-27.2-98.1-125.9-159.1-227.1-139.4c-138,26.9-204.9,184.4-124.5,301.7
		c2.1,3,2.7,5.8,1.9,9.4c-3.7,16.7-7,33.5-10.5,50.3c-0.9,4.2,0.4,4.8,4.3,4c18.1-3.6,36.3-6.9,54.4-10.5c2.9-0.6,5,0,7.4,1.5
		c44.1,27.3,91.8,35.9,142.7,26.4C-1015.6,139.5-947.9,58-947.8-36.5z"/>
	<path class="st0" d="M-947.8-36.5c-0.1,94.5-67.9,176-158.9,192.9c-50.9,9.4-98.6,0.8-142.7-26.4c-2.4-1.5-4.5-2-7.4-1.5
		c-18.1,3.6-36.3,6.9-54.4,10.5c-3.8,0.8-5.2,0.1-4.3-4c3.6-16.8,6.9-33.6,10.5-50.3c0.8-3.7,0.2-6.4-1.9-9.4
		c-80.4-117.3-13.5-274.8,124.5-301.7c101.2-19.7,200,41.3,227.1,139.4C-950.3-69.9-948.1-52.3-947.8-36.5z M-1255.5-88.5
		c-0.2,3.6,0.7,8.6,1.7,13.6c3.3,16.4,11.5,30.5,19.9,44.6c29.6,49.6,70.1,85.7,125.9,103.4c10.9,3.5,21.7,6.1,33.2,3.7
		c23.8-4.8,42.3-16.3,45.5-43c0.7-6-0.2-10.5-6.3-13.5c-7.1-3.4-13.8-7.7-20.8-11.5c-7.3-4-14.5-8.1-21.9-11.8
		c-6.6-3.2-9-2.5-13.8,2.9c-3.9,4.4-7.7,8.8-11.8,13c-11.8,12.2-10.1,12.8-26.5,4.4c-29.4-15.1-50.6-38.1-66.1-66.9
		c-2.7-5.1-2-9,2.3-13c5.5-5.1,10.9-10.3,14.7-17c2.2-3.9,2.5-7.6,0.9-11.8c-4.5-12.4-9.2-24.7-13-37.3c-3.1-10.5-7.7-18-20.1-16.4
		c-0.5,0.1-1.1-0.2-1.7-0.3c-6.9-1.3-13.1,0.5-18.4,5C-1247.2-127.2-1255.3-110.4-1255.5-88.5z"/>
	<path class="st1" d="M-1255.5-88.5c0.3-22,8.4-38.7,23.9-51.9c5.3-4.5,11.5-6.3,18.4-5c0.6,0.1,1.1,0.4,1.7,0.3
		c12.5-1.6,17,5.9,20.1,16.4c3.7,12.6,8.5,24.9,13,37.3c1.5,4.2,1.3,7.9-0.9,11.8c-3.8,6.7-9.2,11.9-14.7,17c-4.3,4-5.1,8-2.3,13
		c15.5,28.8,36.7,51.8,66.1,66.9c16.4,8.4,14.7,7.9,26.5-4.4c4-4.2,7.9-8.6,11.8-13c4.7-5.4,7.2-6.2,13.8-2.9
		c7.4,3.7,14.6,7.8,21.9,11.8c6.9,3.8,13.7,8.1,20.8,11.5c6.1,2.9,7,7.5,6.3,13.5c-3.2,26.7-21.7,38.2-45.5,43
		c-11.5,2.3-22.2-0.3-33.2-3.7c-55.8-17.7-96.3-53.8-125.9-103.4c-8.4-14.1-16.6-28.3-19.9-44.6
		C-1254.8-79.9-1255.7-84.9-1255.5-88.5z"/>
</g>
<g>
	<path d="M401.9,27.5c-82.8,0-165.7,0-248.5,0C77.5,27.6,20.2,84.8,20.2,160.7c-0.1,165.7-0.1,331.3,0,497
		c0,76.6,57.1,133.7,133.8,133.7c165.3,0,330.6,0,496,0c77.4,0,134.2-56.9,134.3-134.3c0-165.3,0-330.6,0-495.9
		c0-76.6-57.1-133.6-133.8-133.7C567.6,27.5,484.7,27.5,401.9,27.5z"/>
	<path class="st2" d="M401.9,27.5c82.8,0,165.7,0,248.5,0c76.7,0,133.7,57.1,133.8,133.7c0,165.3,0,330.6,0,495.9
		c0,77.5-56.8,134.3-134.3,134.3c-165.3,0-330.6,0-496,0c-76.7,0-133.7-57-133.8-133.7c-0.1-165.7-0.1-331.3,0-497
		c0-75.9,57.3-133.1,133.1-133.2C236.2,27.5,319,27.5,401.9,27.5z M148.1,682.8c5-1.2,8.3-1.9,11.4-2.7
		c41.1-11.5,82.2-22.8,123.1-34.9c10-2.9,18.1-2.2,27.6,2.1c156.6,69.5,334.5-34.8,350.4-204.9c14.3-152.9-111.4-281.2-266.2-271.7
		C221.3,181.3,111,367.9,185.5,524.4c3.3,6.9,3.7,13,1.6,20.3C174.1,589.9,161.4,635.3,148.1,682.8z"/>
	<path class="st3" d="M148.1,682.8c13.4-47.5,26-92.9,39-138.2c2.1-7.3,1.7-13.3-1.6-20.3C111,367.9,221.3,181.3,394.4,170.6
		c154.7-9.5,280.4,118.8,266.2,271.7c-15.9,170.2-193.8,274.4-350.4,204.9c-9.5-4.2-17.6-5-27.6-2.1
		c-40.9,12.1-82.1,23.3-123.1,34.9C156.3,681,153.1,681.6,148.1,682.8z M218.5,612.8c26.6-7.5,51-14.1,75.3-21.3
		c6.5-1.9,11.7-1.6,17.9,1.9c37.9,21.6,78.6,30,122.1,25.7C561,606.4,645.3,472.6,601.3,352.6c-40.9-111.9-165.8-164.8-273.1-115.8
		c-107.6,49.1-149.1,179.3-90.1,283.3c3.3,5.8,3.7,10.6,1.9,16.8C232.8,561.2,226.1,585.8,218.5,612.8z"/>
	<path class="st2" d="M218.5,612.8c7.6-27.1,14.4-51.6,21.5-76c1.8-6.1,1.4-11-1.9-16.8c-59-103.9-17.5-234.1,90.1-283.3
		c107.4-49,232.2,3.9,273.1,115.8c43.9,120-40.3,253.8-167.6,266.5c-43.5,4.3-84.2-4-122.1-25.7c-6.2-3.5-11.3-3.8-17.9-1.9
		C269.5,598.7,245.1,605.3,218.5,612.8z M473.6,528.8c6.2-0.4,9.6-0.4,13-0.8c28.9-3.6,48.6-23.9,49.4-50.5
		c0.2-5.8-1.3-10.1-6.9-12.8c-15.2-7.2-30.4-14.4-45.6-21.8c-7.4-3.6-12.5-1.8-17.1,4.9c-4.9,7.1-10.8,13.4-16.2,20.1
		c-3.8,4.7-8.3,5.9-13.9,3.2c-29.7-14.3-56.9-31.5-75.3-60.1c-10.8-16.7-11.3-16.7,1.5-32.1c8.4-10,12.1-19.7,4.8-32.4
		c-5.5-9.6-8.8-20.6-13-31c-7.8-19.3-29.9-23.4-44.7-8.4c-22.6,22.9-27.7,54.8-11.8,86.1c22.2,43.5,53.8,79.1,95.1,105.5
		C418.2,515,445.9,526,473.6,528.8z"/>
	<path class="st3" d="M473.6,528.8c-27.7-2.8-55.3-13.9-80.8-30.1c-41.3-26.4-72.9-62-95.1-105.5c-15.9-31.3-10.7-63.2,11.8-86.1
		c14.8-15.1,36.9-10.9,44.7,8.4c4.2,10.4,7.4,21.4,13,31c7.3,12.7,3.6,22.4-4.8,32.4c-12.8,15.4-12.3,15.4-1.5,32.1
		c18.4,28.5,45.6,45.8,75.3,60.1c5.6,2.7,10.1,1.5,13.9-3.2c5.4-6.7,11.3-13,16.2-20.1c4.6-6.7,9.8-8.5,17.1-4.9
		c15.1,7.4,30.3,14.6,45.6,21.8c5.6,2.6,7.1,6.9,6.9,12.8c-0.8,26.7-20.4,46.9-49.4,50.5C483.2,528.4,479.8,528.4,473.6,528.8z"/>
</g>
</svg>
